<?xml version="1.0" encoding="UTF-8" ?>
<!DOCTYPE svg PUBLIC "-//W3C//DTD SVG 1.1//EN" "http://www.w3.org/Graphics/SVG/1.1/DTD/svg11.dtd">
<svg width="312pt" height="258pt" viewBox="0 0 312 258" version="1.1" xmlns="http://www.w3.org/2000/svg">
<g id="#3c5a80ff">
</g>
<g id="#ffffffff">
<path fill="#ffffff" opacity="1.00" d=" M 143.59 21.05 C 149.72 22.04 156.59 20.41 162.02 24.03 C 164.59 25.46 167.18 26.83 169.77 28.21 C 166.40 31.80 162.79 35.15 159.47 38.79 C 154.72 37.94 150.06 36.63 145.36 35.54 C 144.70 30.72 144.25 25.87 143.59 21.05 Z" />
<path fill="#ffffff" opacity="1.00" d=" M 117.59 43.66 C 120.10 41.68 122.29 39.34 124.71 37.26 C 142.78 40.09 160.88 42.67 178.94 45.50 C 179.68 47.95 180.25 50.46 181.11 52.87 C 183.51 53.93 186.28 53.63 188.83 54.07 C 184.74 56.39 180.43 58.28 176.21 60.33 C 156.09 57.70 135.93 55.35 115.80 52.86 C 114.80 49.71 113.81 46.55 112.76 43.41 C 114.35 43.46 116.03 44.14 117.59 43.66 Z" />
<path fill="#ffffff" opacity="1.00" d=" M 85.09 54.09 C 94.34 54.75 103.62 55.28 112.83 56.41 C 110.52 64.75 108.70 73.23 106.50 81.61 C 99.31 72.48 92.25 63.24 85.09 54.09 Z" />
<path fill="#ffffff" opacity="1.00" d=" M 101.11 166.92 C 130.90 164.94 160.68 162.76 190.47 160.63 C 188.58 164.12 186.72 167.62 184.84 171.11 C 158.18 172.99 131.55 175.10 104.89 176.98 C 103.61 173.63 102.23 170.33 101.11 166.92 Z" />
<path fill="#ffffff" opacity="1.00" d=" M 37.68 194.05 C 40.15 194.06 42.63 194.07 45.10 194.10 C 45.13 200.79 45.10 207.49 45.12 214.19 C 47.89 214.19 50.67 214.20 53.45 214.20 C 53.48 207.49 53.45 200.77 53.46 194.05 C 55.95 194.06 58.43 194.06 60.92 194.07 C 60.90 209.72 60.97 225.38 60.89 241.03 C 58.41 241.07 55.94 241.05 53.46 240.98 C 53.45 234.26 53.48 227.54 53.45 220.82 C 50.67 220.82 47.90 220.82 45.12 220.83 C 45.10 227.52 45.12 234.21 45.11 240.90 C 42.64 240.92 40.16 240.97 37.69 241.05 C 37.65 225.38 37.67 209.72 37.68 194.05 Z" />
<path fill="#ffffff" opacity="1.00" d=" M 64.40 194.04 C 72.01 194.13 79.62 194.00 87.23 194.12 C 87.22 196.30 87.22 198.49 87.22 200.68 C 84.64 200.70 82.06 200.70 79.48 200.68 C 79.47 214.11 79.46 227.54 79.48 240.96 C 77.04 241.06 74.60 241.07 72.16 241.02 C 72.09 227.58 72.16 214.15 72.13 200.71 C 69.55 200.69 66.96 200.69 64.38 200.72 C 64.38 198.49 64.38 196.26 64.40 194.04 Z" />
<path fill="#ffffff" opacity="1.00" d=" M 90.43 194.11 C 92.66 194.04 94.88 194.04 97.10 194.11 C 97.29 203.31 96.71 212.55 97.43 221.73 C 99.47 212.38 102.21 203.21 104.70 193.98 C 107.75 194.08 110.81 194.10 113.86 194.06 C 113.84 209.71 113.90 225.36 113.83 241.01 C 111.66 241.04 109.49 241.05 107.33 241.06 C 107.17 229.96 107.45 218.85 107.19 207.75 C 103.89 218.73 101.13 229.88 98.10 240.95 C 95.56 241.08 93.01 241.09 90.47 240.95 C 90.48 225.34 90.55 209.72 90.43 194.11 Z" />
<path fill="#ffffff" opacity="1.00" d=" M 201.41 194.04 C 206.67 194.36 212.09 193.40 217.24 194.79 C 222.22 196.51 223.58 202.33 223.30 207.04 C 223.26 211.59 223.80 216.87 220.44 220.49 C 217.42 223.68 212.71 223.36 208.70 223.43 C 208.77 229.27 208.72 235.10 208.73 240.94 C 206.29 240.97 203.85 241.01 201.42 241.03 C 201.39 225.36 201.40 209.70 201.41 194.04 M 208.73 200.67 C 208.73 205.99 208.75 211.30 208.72 216.62 C 211.01 216.44 214.58 217.45 215.56 214.59 C 215.99 210.62 216.10 206.50 215.50 202.54 C 214.28 199.93 211.01 200.88 208.73 200.67 Z" />
<path fill="#ffffff" opacity="1.00" d=" M 280.56 194.06 C 288.13 194.02 295.72 194.19 303.29 193.97 C 303.42 196.21 303.44 198.46 303.40 200.71 C 300.81 200.70 298.23 200.69 295.65 200.69 C 295.63 214.13 295.68 227.57 295.63 241.01 C 293.20 241.06 290.77 241.06 288.34 241.02 C 288.28 227.58 288.33 214.14 288.31 200.70 C 285.73 200.69 283.15 200.70 280.57 200.72 C 280.56 198.50 280.56 196.28 280.56 194.06 Z" />
</g>
<g id="#fefefeff">
<path fill="#fefefe" opacity="1.00" d=" M 181.72 63.33 C 192.09 60.60 202.46 57.89 212.83 55.20 C 218.38 64.03 223.91 72.87 229.44 81.71 C 230.42 82.73 229.02 83.67 228.54 84.50 C 216.81 99.48 205.32 114.66 193.55 129.61 C 192.89 125.29 192.30 120.97 191.53 116.66 C 200.76 106.01 210.03 95.39 219.28 84.76 C 216.20 77.38 213.13 70.00 210.02 62.63 C 203.27 65.78 196.39 68.64 189.67 71.85 C 187.78 75.60 187.14 79.89 185.76 83.85 C 184.21 77.05 183.10 70.16 181.72 63.33 Z" />
<path fill="#fefefe" opacity="1.00" d=" M 15.93 194.09 C 19.56 194.07 23.18 194.03 26.80 194.07 C 29.32 209.73 31.79 225.39 34.32 241.05 C 31.83 241.07 29.33 241.05 26.84 240.99 C 26.46 238.14 26.02 235.30 25.56 232.46 C 22.56 232.48 19.55 232.48 16.54 232.46 C 16.10 235.32 15.65 238.17 15.24 241.04 C 12.99 241.05 10.73 241.05 8.48 241.05 C 10.91 225.39 13.53 209.76 15.93 194.09 M 17.47 226.15 C 19.83 226.14 22.20 226.14 24.57 226.15 C 23.33 218.39 22.45 210.58 20.98 202.87 C 19.67 210.60 18.67 218.39 17.47 226.15 Z" />
<path fill="#fefefe" opacity="1.00" d=" M 147.13 194.06 C 152.22 194.23 157.36 193.68 162.41 194.46 C 165.99 195.09 168.54 198.33 168.93 201.85 C 169.62 206.78 169.57 213.20 164.62 215.97 C 170.54 218.51 170.06 225.74 169.81 231.07 C 169.89 235.28 167.14 239.55 162.90 240.49 C 157.72 241.47 152.41 240.91 147.17 241.05 C 147.08 225.38 147.15 209.72 147.13 194.06 M 154.50 213.26 C 156.80 213.10 159.96 213.62 161.27 211.18 C 162.04 208.45 161.96 205.43 161.35 202.68 C 160.22 199.97 156.78 200.85 154.49 200.65 C 154.47 204.85 154.45 209.05 154.50 213.26 M 154.49 234.35 C 157.09 234.09 161.26 235.27 162.29 231.93 C 162.62 228.65 162.85 225.22 162.02 222.00 C 160.65 219.22 157.07 219.96 154.56 219.74 C 154.38 224.61 154.49 229.48 154.49 234.35 Z" />
<path fill="#fefefe" opacity="1.00" d=" M 172.21 241.01 C 174.65 225.33 177.15 209.65 179.74 193.99 C 183.33 194.11 186.92 194.05 190.51 194.07 C 192.94 209.74 195.63 225.36 197.93 241.05 C 195.52 241.04 193.10 241.05 190.69 241.10 C 190.11 238.24 189.68 235.36 189.31 232.48 C 186.28 232.47 183.26 232.47 180.23 232.48 C 179.76 235.28 179.37 238.09 179.02 240.91 C 176.75 241.04 174.48 241.07 172.21 241.01 M 181.22 226.15 C 183.58 226.14 185.94 226.14 188.30 226.14 C 187.13 218.37 185.88 210.62 184.90 202.84 C 183.25 210.52 182.39 218.37 181.22 226.15 Z" />
<path fill="#fefefe" opacity="1.00" d=" M 226.59 194.02 C 228.79 194.05 230.99 194.07 233.19 194.08 C 233.38 203.29 232.81 212.53 233.51 221.73 C 235.58 212.39 238.32 203.22 240.78 193.99 C 243.87 194.06 246.96 194.08 250.05 194.10 C 250.05 209.70 250.02 225.30 250.05 240.90 C 247.84 241.01 245.62 241.06 243.41 241.08 C 243.25 229.91 243.56 218.73 243.26 207.57 C 240.09 218.68 237.22 229.89 234.15 241.04 C 231.63 241.05 229.12 241.05 226.60 241.05 C 226.56 225.37 226.57 209.70 226.59 194.02 Z" />
<path fill="#fefefe" opacity="1.00" d=" M 253.40 241.05 C 255.80 225.38 258.42 209.74 260.85 194.07 C 264.44 194.07 268.04 194.07 271.63 194.00 C 274.27 209.62 276.63 225.30 279.21 240.93 C 276.73 241.03 274.25 241.07 271.77 241.05 C 271.35 238.19 270.91 235.32 270.47 232.46 C 267.46 232.48 264.45 232.48 261.45 232.46 C 260.97 235.23 260.54 238.00 260.30 240.80 C 258.00 241.07 255.70 241.12 253.40 241.05 M 265.95 202.82 C 264.52 210.55 263.58 218.37 262.38 226.14 C 264.74 226.14 267.11 226.14 269.48 226.14 C 268.25 218.38 267.27 210.57 265.95 202.82 Z" />
</g>
<g id="#fab57eff">
<path fill="#fab57e" opacity="1.00" d=" M 115.98 56.53 C 127.75 57.93 139.51 59.42 151.28 60.80 C 156.14 92.99 160.88 125.20 165.73 157.39 C 142.94 159.39 120.15 161.38 97.36 163.43 C 103.57 127.80 109.85 92.18 115.98 56.53 Z" />
<path fill="#fab57e" opacity="1.00" d=" M 159.01 61.74 C 164.87 62.53 170.75 63.22 176.62 63.94 C 182.13 94.14 187.52 124.37 192.96 154.59 C 184.69 155.45 176.40 156.25 168.10 156.86 C 165.14 125.15 161.89 93.46 159.01 61.74 Z" />
</g>
<g id="#fefffeff">
<path fill="#fefffe" opacity="1.00" d=" M 119.32 194.02 C 121.74 193.95 124.17 193.93 126.60 193.94 C 126.73 200.70 126.54 207.45 126.70 214.20 C 130.10 207.63 133.14 200.86 136.32 194.17 C 138.78 194.07 141.25 194.01 143.71 193.95 C 140.32 200.98 136.88 207.98 133.42 214.98 C 136.87 223.65 140.32 232.33 143.69 241.05 C 141.14 241.10 138.59 241.06 136.04 240.90 C 133.77 234.66 131.26 228.51 128.99 222.26 C 124.87 227.67 127.28 234.75 126.63 241.00 C 124.20 241.06 121.76 241.06 119.33 241.02 C 119.29 225.35 119.30 209.69 119.32 194.02 Z" />
</g>
<g id="#3b597fff">
</g>
</svg>
