<?xml version="1.0" encoding="UTF-8" ?>
<!DOCTYPE svg PUBLIC "-//W3C//DTD SVG 1.1//EN" "http://www.w3.org/Graphics/SVG/1.1/DTD/svg11.dtd">
<svg width="500" height="500" viewBox="0 0 500 500" version="1.1" xmlns="http://www.w3.org/2000/svg">
<g id="#3c5a80ff">
</g>
<g id="#ffffffff">
<path fill="#ffffff" opacity="1.00" d=" M 239.59 79.05 C 244.38 79.49 249.22 79.40 253.97 80.17 C 258.13 81.68 261.79 84.29 265.77 86.21 C 262.34 89.79 258.79 93.25 255.37 96.84 C 250.68 95.82 246.02 94.67 241.36 93.54 C 240.72 88.72 240.23 83.88 239.59 79.05 Z" />
<path fill="#ffffff" opacity="1.00" d=" M 213.51 101.66 C 216.10 99.75 218.30 97.39 220.69 95.26 C 238.75 98.06 256.83 100.70 274.90 103.46 C 275.66 106.02 276.40 108.59 277.13 111.16 C 279.69 111.50 282.25 111.82 284.82 112.14 C 280.68 114.32 276.45 116.33 272.22 118.33 C 252.09 115.72 231.94 113.33 211.80 110.87 C 210.81 107.74 209.83 104.61 208.77 101.50 C 210.34 101.56 211.94 101.88 213.51 101.66 Z" />
<path fill="#ffffff" opacity="1.00" d=" M 181.03 111.95 C 190.27 112.79 199.52 113.43 208.76 114.23 C 206.69 122.69 204.62 131.15 202.52 139.60 C 195.28 130.44 188.17 121.19 181.03 111.95 Z" />
<path fill="#ffffff" opacity="1.00" d=" M 197.04 224.93 C 226.86 222.92 256.68 220.78 286.49 218.61 C 284.59 222.10 282.71 225.61 280.85 229.12 C 254.19 230.98 227.55 233.11 200.89 234.97 C 199.59 231.63 198.29 228.29 197.04 224.93 Z" />
<path fill="#ffffff" opacity="1.00" d=" M 133.68 252.04 C 136.16 252.06 138.63 252.08 141.11 252.10 C 141.13 258.80 141.07 265.51 141.15 272.22 C 143.92 272.20 146.69 272.19 149.46 272.20 C 149.47 265.48 149.45 258.76 149.47 252.04 C 151.95 252.06 154.44 252.07 156.93 252.07 C 156.92 267.69 156.92 283.32 156.93 298.94 C 154.44 298.94 151.95 298.95 149.47 298.97 C 149.45 292.25 149.47 285.54 149.46 278.82 C 146.68 278.82 143.90 278.82 141.12 278.82 C 141.10 285.52 141.12 292.22 141.11 298.92 C 138.63 298.93 136.15 298.95 133.68 298.97 C 133.67 283.32 133.66 267.68 133.68 252.04 Z" />
<path fill="#ffffff" opacity="1.00" d=" M 160.39 252.04 C 168.00 252.10 175.60 252.06 183.21 252.07 C 183.21 254.27 183.22 256.48 183.23 258.69 C 180.64 258.69 178.05 258.69 175.47 258.69 C 175.47 272.13 175.47 285.57 175.47 299.01 C 173.03 299.03 170.59 299.05 168.16 299.06 C 168.10 285.61 168.15 272.15 168.13 258.70 C 165.55 258.70 162.96 258.70 160.38 258.71 C 160.38 256.49 160.39 254.26 160.39 252.04 Z" />
<path fill="#ffffff" opacity="1.00" d=" M 186.48 252.06 C 188.69 252.06 190.89 252.08 193.11 252.09 C 193.23 261.30 192.82 270.52 193.35 279.72 C 195.56 270.42 198.17 261.22 200.69 252.00 C 203.75 252.07 206.81 252.07 209.87 252.07 C 209.84 267.73 209.89 283.38 209.84 299.04 C 207.66 299.04 205.49 299.05 203.31 299.06 C 203.20 287.91 203.43 276.75 203.20 265.61 C 199.95 276.66 197.13 287.84 194.09 298.95 C 191.55 298.94 189.01 298.94 186.47 298.94 C 186.51 283.31 186.49 267.68 186.48 252.06 Z" />
<path fill="#ffffff" opacity="1.00" d=" M 297.40 252.05 C 302.68 252.32 308.11 251.41 313.27 252.81 C 317.83 254.37 319.42 259.56 319.29 263.94 C 319.23 268.84 320.01 274.58 316.42 278.52 C 313.40 281.66 308.71 281.36 304.72 281.43 C 304.74 287.27 304.73 293.12 304.73 298.96 C 302.28 298.95 299.84 298.95 297.40 298.96 C 297.40 283.32 297.40 267.69 297.40 252.05 M 304.74 258.57 C 304.73 263.96 304.73 269.35 304.74 274.74 C 306.91 274.37 309.75 275.25 311.32 273.26 C 312.25 269.29 311.94 265.09 311.60 261.06 C 310.93 257.96 307.04 258.89 304.74 258.57 Z" />
<path fill="#ffffff" opacity="1.00" d=" M 376.55 258.72 C 376.56 256.48 376.57 254.25 376.59 252.01 C 384.19 252.13 391.80 252.06 399.40 252.05 C 399.40 254.27 399.40 256.49 399.40 258.72 C 396.82 258.70 394.23 258.69 391.65 258.69 C 391.66 272.11 391.63 285.53 391.66 298.96 C 389.22 299.00 386.77 299.04 384.33 299.07 C 384.29 285.61 384.32 272.15 384.32 258.69 C 381.73 258.69 379.14 258.70 376.55 258.72 Z" />
<path fill="#ffffff" opacity="1.00" d=" M 219.34 388.81 C 222.55 389.03 226.16 388.19 229.03 389.98 C 231.10 391.67 229.89 394.37 228.35 395.93 C 230.52 397.20 232.01 400.02 230.17 402.23 C 227.34 405.01 222.91 403.74 219.35 404.05 C 219.33 398.97 219.33 393.89 219.34 388.81 M 221.34 390.36 C 221.34 392.05 221.35 393.74 221.36 395.44 C 223.65 394.98 227.56 396.20 228.21 393.00 C 227.97 389.55 223.60 390.81 221.34 390.36 M 221.37 396.79 C 221.36 398.68 221.35 400.57 221.34 402.47 C 223.74 402.00 228.51 403.43 228.90 399.93 C 229.16 395.99 223.85 397.14 221.37 396.79 Z" />
</g>
<g id="#fefefeff">
<path fill="#fefefe" opacity="1.00" d=" M 277.69 121.39 C 288.04 118.55 298.46 115.92 308.84 113.19 C 314.55 122.35 320.33 131.46 325.99 140.65 C 313.79 156.28 301.70 171.99 289.59 187.69 C 288.90 183.35 288.27 178.99 287.54 174.65 C 296.76 164.00 306.04 153.39 315.28 142.74 C 312.19 135.38 309.12 128.00 306.04 120.63 C 299.32 123.83 292.35 126.50 285.74 129.90 C 283.67 133.56 283.16 137.94 281.73 141.89 C 280.24 135.09 279.13 128.21 277.69 121.39 Z" />
<path fill="#fefefe" opacity="1.00" d=" M 111.94 252.08 C 115.56 252.06 119.19 252.06 122.81 252.08 C 125.30 267.73 127.79 283.37 130.32 299.01 C 127.84 299.03 125.35 299.04 122.86 299.06 C 122.45 296.19 122.02 293.32 121.57 290.46 C 118.56 290.48 115.55 290.48 112.54 290.46 C 112.10 293.32 111.65 296.18 111.24 299.04 C 108.98 299.05 106.72 299.05 104.46 299.05 C 106.94 283.39 109.51 267.75 111.94 252.08 M 113.45 284.14 C 115.83 284.14 118.21 284.14 120.58 284.14 C 119.34 276.35 118.37 268.51 117.01 260.74 C 115.66 268.51 114.70 276.35 113.45 284.14 Z" />
<path fill="#fefefe" opacity="1.00" d=" M 215.31 252.06 C 217.74 252.06 220.18 252.04 222.62 252.01 C 222.70 258.77 222.57 265.53 222.69 272.29 C 226.01 265.63 229.17 258.89 232.33 252.16 C 234.79 252.08 237.26 252.01 239.72 251.93 C 236.33 258.96 232.88 265.97 229.42 272.97 C 232.88 281.66 236.32 290.37 239.72 299.08 C 237.17 299.05 234.62 298.99 232.07 298.93 C 229.72 292.66 227.29 286.42 224.91 280.16 C 221.10 285.75 223.14 292.73 222.64 299.03 C 220.20 299.04 217.76 299.04 215.32 299.05 C 215.28 283.39 215.31 267.72 215.31 252.06 Z" />
<path fill="#fefefe" opacity="1.00" d=" M 243.13 252.06 C 248.13 252.19 253.17 251.72 258.14 252.43 C 261.43 252.90 264.13 255.62 264.72 258.87 C 265.76 264.06 265.71 270.63 260.87 273.96 C 266.73 277.09 266.11 284.43 265.72 290.06 C 265.56 294.23 262.32 298.08 258.13 298.64 C 253.17 299.33 248.14 298.93 243.15 299.04 C 243.09 283.38 243.15 267.72 243.13 252.06 M 250.49 258.55 C 250.47 262.83 250.46 267.10 250.49 271.38 C 252.73 270.95 255.91 271.61 257.22 269.23 C 258.07 266.47 258.00 263.38 257.30 260.60 C 256.13 257.99 252.73 258.96 250.49 258.55 M 250.49 277.67 C 250.46 282.58 250.47 287.50 250.48 292.42 C 253.02 292.03 257.26 293.25 258.24 289.96 C 258.72 286.70 258.80 283.30 258.05 280.08 C 256.73 277.20 253.01 278.07 250.49 277.67 Z" />
<path fill="#fefefe" opacity="1.00" d=" M 268.20 299.08 C 270.64 283.37 273.16 267.68 275.73 252.00 C 279.29 252.08 282.87 252.08 286.44 252.00 C 289.02 267.67 291.56 283.35 293.95 299.04 C 291.51 299.05 289.06 299.05 286.62 299.07 C 286.16 296.20 285.70 293.34 285.28 290.48 C 282.26 290.48 279.23 290.47 276.21 290.48 C 275.78 293.29 275.39 296.10 275.01 298.92 C 272.74 298.97 270.46 299.03 268.20 299.08 M 280.85 260.65 C 279.36 268.43 278.37 276.30 277.19 284.14 C 279.56 284.14 281.93 284.14 284.30 284.14 C 283.10 276.32 281.90 268.49 280.85 260.65 Z" />
<path fill="#fefefe" opacity="1.00" d=" M 322.59 252.03 C 324.79 252.05 326.99 252.07 329.20 252.08 C 329.28 261.32 329.00 270.56 329.36 279.79 C 331.70 270.50 334.25 261.27 336.75 252.03 C 339.85 252.06 342.95 252.07 346.06 252.10 C 345.96 267.75 346.23 283.40 345.93 299.05 C 343.75 299.05 341.57 299.05 339.40 299.05 C 339.28 287.87 339.53 276.68 339.27 265.50 C 336.11 276.65 333.22 287.87 330.15 299.04 C 327.63 299.05 325.11 299.05 322.59 299.05 C 322.56 283.38 322.57 267.70 322.59 252.03 Z" />
<path fill="#fefefe" opacity="1.00" d=" M 349.37 299.07 C 351.93 283.44 354.18 267.75 356.99 252.17 C 360.54 251.90 364.11 252.10 367.67 252.06 C 370.23 267.68 372.66 283.32 375.21 298.95 C 372.73 299.00 370.25 299.05 367.77 299.07 C 367.35 296.20 366.91 293.33 366.47 290.46 C 363.46 290.48 360.44 290.48 357.43 290.47 C 356.99 293.28 356.57 296.10 356.17 298.93 C 353.90 298.97 351.63 299.02 349.37 299.07 M 361.94 260.79 C 360.53 268.54 359.59 276.36 358.36 284.14 C 360.73 284.14 363.11 284.14 365.49 284.14 C 364.24 276.37 363.27 268.55 361.94 260.79 Z" />
<path fill="#fefefe" opacity="1.00" d=" M 241.86 388.85 C 245.99 389.27 250.70 387.67 254.35 390.15 C 250.90 390.69 247.39 390.53 243.92 390.56 C 243.91 392.17 243.91 393.78 243.92 395.39 C 246.83 395.40 249.74 395.39 252.66 395.38 C 252.69 395.80 252.76 396.63 252.79 397.05 C 249.83 397.07 246.87 397.07 243.91 397.10 C 243.91 398.84 243.91 400.57 243.92 402.32 C 247.19 402.32 250.46 402.32 253.74 402.31 C 253.77 402.72 253.84 403.56 253.88 403.97 C 249.87 404.07 245.86 404.05 241.86 403.94 C 241.87 398.91 241.86 393.88 241.86 388.85 Z" />
<path fill="#fefefe" opacity="1.00" d=" M 264.68 388.21 C 267.90 389.44 265.99 393.55 266.73 396.11 C 270.12 394.15 270.94 389.41 274.92 388.39 C 273.48 390.99 271.74 393.41 269.98 395.81 C 271.86 398.65 273.80 401.46 275.46 404.45 C 270.66 404.18 271.12 397.24 266.61 396.59 C 265.97 399.19 268.03 403.51 264.64 404.59 C 264.45 399.13 264.41 393.66 264.68 388.21 Z" />
</g>
<g id="#fab57eff">
<path fill="#fab57e" opacity="1.00" d=" M 211.99 114.52 C 223.75 115.95 235.52 117.40 247.29 118.80 C 252.13 150.99 256.87 183.19 261.74 215.38 C 238.94 217.40 216.14 219.36 193.35 221.45 C 199.58 185.81 205.83 150.17 211.99 114.52 Z" />
<path fill="#fab57e" opacity="1.00" d=" M 255.00 119.75 C 260.89 120.53 266.80 121.18 272.68 122.01 C 278.08 152.21 283.54 182.40 288.97 212.60 C 280.69 213.43 272.40 214.23 264.10 214.88 C 261.14 183.16 257.90 151.47 255.00 119.75 Z" />
<path fill="#fab57e" opacity="1.00" d=" M 222.54 338.20 C 225.29 333.82 227.97 329.41 230.77 325.06 C 235.93 325.14 241.09 325.11 246.25 325.14 C 241.03 332.96 235.83 340.81 230.62 348.65 C 236.46 356.13 242.42 363.52 248.17 371.07 C 243.43 370.99 238.69 370.91 233.95 370.96 C 230.44 366.60 227.00 362.20 223.43 357.89 C 220.03 362.28 216.78 366.79 213.26 371.09 C 207.90 370.84 202.53 370.85 197.16 370.82 C 203.35 363.55 209.48 356.23 215.71 348.99 C 209.90 342.34 204.17 335.62 198.40 328.94 C 203.60 328.69 208.81 328.49 214.01 328.19 C 216.84 331.53 219.67 334.89 222.54 338.20 Z" />
<path fill="#fab57e" opacity="1.00" d=" M 284.31 325.17 C 289.52 325.09 294.74 325.12 299.95 325.10 C 294.76 332.99 289.48 340.81 284.32 348.72 C 290.25 356.11 296.09 363.58 301.91 371.06 C 297.21 370.91 292.51 370.91 287.81 371.07 C 284.18 366.71 280.72 362.22 277.13 357.84 C 273.83 362.24 270.51 366.62 267.16 370.98 C 261.73 370.89 256.31 370.87 250.88 370.80 C 257.05 363.53 263.21 356.23 269.41 348.98 C 263.62 342.33 257.86 335.65 252.14 328.94 C 257.37 328.69 262.60 328.45 267.83 328.24 C 270.59 331.61 273.39 334.95 276.27 338.21 C 278.94 333.86 281.66 329.54 284.31 325.17 Z" />
</g>
<g id="#3b597fff">
</g>
<g id="#3f5d82ff">
</g>
<g id="#3d5b80ff">
</g>
</svg>
