<svg xmlns="http://www.w3.org/2000/svg" width="295" height="326" version="1.1" style=""><rect id="backgroundrect" width="100%" height="100%" x="0" y="0" fill="none" stroke="none" class="" style=""/>







<g class="currentLayer" style=""><title>Layer 1</title><g id="#3c5a80ff" class="">
</g><g id="#3b597fff" class="">
</g><g id="#3f5d82ff" class="">
</g><g id="#3d5b80ff" class="">
</g><g class="" transform="rotate(-0.18601715564727783 147.47000122069855,162.76998901367648) "><g id="#ffffffff" class="" opacity="1">
<path fill="#ffffff" opacity="1" d="M135.13000091552735,4.973799150320701e-13 C139.92000091552734,0.44000000000049516 144.76000091552734,0.350000000000506 149.51000091552734,1.120000000000502 C153.67000091552734,2.630000000000507 157.33000091552736,5.2400000000005065 161.31000091552733,7.160000000000494 C157.88000091552732,10.740000000000506 154.33000091552736,14.2000000000005 150.91000091552735,17.790000000000504 C146.22000091552735,16.770000000000493 141.56000091552735,15.620000000000502 136.90000091552736,14.490000000000506 C136.26000091552734,9.670000000000499 135.77000091552733,4.830000000000496 135.13000091552735,4.973799150320701e-13 z" id="svg_1"/>
<path fill="#ffffff" opacity="1" d="M109.05000091552733,22.610000000000497 C111.64000091552734,20.7000000000005 113.84000091552736,18.3400000000005 116.23000091552734,16.210000000000505 C134.29000091552734,19.010000000000502 152.37000091552733,21.650000000000503 170.44000091552732,24.410000000000494 C171.20000091552737,26.970000000000496 171.94000091552732,29.540000000000504 172.67000091552734,32.1100000000005 C175.23000091552734,32.4500000000005 177.79000091552734,32.77000000000049 180.36000091552734,33.0900000000005 C176.22000091552735,35.27000000000049 171.99000091552733,37.2800000000005 167.76000091552737,39.2800000000005 C147.63000091552735,36.6700000000005 127.48000091552734,34.2800000000005 107.34000091552736,31.820000000000505 C106.35000091552735,28.690000000000495 105.37000091552736,25.5600000000005 104.31000091552735,22.4500000000005 C105.88000091552735,22.510000000000502 107.48000091552734,22.830000000000496 109.05000091552733,22.610000000000497 z" id="svg_2"/>
<path fill="#ffffff" opacity="1" d="M76.57000091552734,32.9000000000005 C85.81000091552735,33.74000000000051 95.06000091552735,34.38000000000051 104.30000091552733,35.180000000000504 C102.23000091552734,43.6400000000005 100.16000091552735,52.100000000000506 98.06000091552735,60.550000000000495 C90.82000091552734,51.3900000000005 83.71000091552733,42.1400000000005 76.57000091552734,32.9000000000005 z" id="svg_3"/>
<path fill="#ffffff" opacity="1" d="M92.58000091552734,145.8800000000005 C122.40000091552736,143.8700000000005 152.22000091552735,141.7300000000005 182.03000091552735,139.5600000000005 C180.13000091552732,143.0500000000005 178.25000091552732,146.5600000000005 176.39000091552737,150.0700000000005 C149.73000091552734,151.9300000000005 123.09000091552736,154.0600000000005 96.43000091552733,155.9200000000005 C95.13000091552735,152.5800000000005 93.83000091552734,149.2400000000005 92.58000091552734,145.8800000000005 z" id="svg_4"/>
<path fill="#ffffff" opacity="1" d="M29.22000091552735,172.9900000000005 C31.70000091552734,173.0100000000005 34.17000091552734,173.0300000000005 36.65000091552736,173.0500000000005 C36.67000091552734,179.7500000000005 36.61000091552734,186.4600000000005 36.69000091552735,193.17000000000053 C39.46000091552733,193.1500000000005 42.23000091552734,193.1400000000005 45.00000091552735,193.1500000000005 C45.01000091552734,186.43000000000052 44.99000091552733,179.7100000000005 45.01000091552734,172.9900000000005 C47.49000091552733,173.0100000000005 49.98000091552734,173.0200000000005 52.47000091552735,173.0200000000005 C52.46000091552733,188.6400000000005 52.46000091552733,204.2700000000005 52.47000091552735,219.8900000000005 C49.98000091552734,219.8900000000005 47.49000091552733,219.9000000000005 45.01000091552734,219.92000000000053 C44.99000091552733,213.2000000000005 45.01000091552734,206.49000000000052 45.00000091552735,199.7700000000005 C42.22000091552735,199.7700000000005 39.44000091552735,199.7700000000005 36.66000091552735,199.7700000000005 C36.64000091552734,206.47000000000048 36.66000091552735,213.17000000000053 36.65000091552736,219.87000000000052 C34.17000091552734,219.8800000000005 31.69000091552735,219.9000000000005 29.22000091552735,219.92000000000053 C29.21000091552733,204.2700000000005 29.20000091552734,188.6300000000005 29.22000091552735,172.9900000000005 z" id="svg_5"/>
<path fill="#ffffff" opacity="1" d="M55.93000091552733,172.9900000000005 C63.540000915527344,173.0500000000005 71.14000091552734,173.0100000000005 78.75000091552735,173.0200000000005 C78.75000091552735,175.2200000000005 78.76000091552734,177.43000000000052 78.77000091552733,179.6400000000005 C76.18000091552733,179.6400000000005 73.59000091552736,179.6400000000005 71.01000091552734,179.6400000000005 C71.01000091552734,193.0800000000005 71.01000091552734,206.5200000000005 71.01000091552734,219.9600000000005 C68.57000091552734,219.98000000000047 66.13000091552735,220.0000000000005 63.70000091552734,220.0100000000005 C63.64000091552734,206.5600000000005 63.69000091552735,193.10000000000048 63.67000091552734,179.6500000000005 C61.090000915527355,179.6500000000005 58.50000091552735,179.6500000000005 55.92000091552734,179.66000000000048 C55.92000091552734,177.4400000000005 55.93000091552733,175.2100000000005 55.93000091552733,172.9900000000005 z" id="svg_6"/>
<path fill="#ffffff" opacity="1" d="M82.02000091552733,173.0100000000005 C84.23000091552734,173.0100000000005 86.43000091552733,173.0300000000005 88.65000091552736,173.0400000000005 C88.77000091552733,182.2500000000005 88.36000091552734,191.47000000000048 88.89000091552734,200.67000000000053 C91.10000091552735,191.37000000000052 93.71000091552733,182.17000000000053 96.23000091552734,172.9500000000005 C99.29000091552734,173.0200000000005 102.35000091552735,173.0200000000005 105.41000091552735,173.0200000000005 C105.38000091552735,188.68000000000052 105.43000091552733,204.3300000000005 105.38000091552735,219.99000000000052 C103.20000091552734,219.99000000000052 101.03000091552735,220.0000000000005 98.85000091552735,220.0100000000005 C98.74000091552733,208.86000000000053 98.97000091552735,197.7000000000005 98.74000091552733,186.5600000000005 C95.49000091552733,197.61000000000053 92.67000091552734,208.79000000000048 89.63000091552735,219.9000000000005 C87.09000091552736,219.8900000000005 84.55000091552733,219.8900000000005 82.01000091552734,219.8900000000005 C82.05000091552733,204.2600000000005 82.03000091552735,188.6300000000005 82.02000091552733,173.0100000000005 z" id="svg_7"/>
<path fill="#ffffff" opacity="1" d="M192.94000091552732,173.0000000000005 C198.22000091552735,173.2700000000005 203.65000091552736,172.3600000000005 208.81000091552733,173.7600000000005 C213.37000091552733,175.3200000000005 214.96000091552736,180.5100000000005 214.83000091552736,184.8900000000005 C214.77000091552736,189.79000000000048 215.55000091552733,195.53000000000048 211.96000091552736,199.47000000000048 C208.94000091552732,202.61000000000053 204.25000091552732,202.3100000000005 200.26000091552737,202.3800000000005 C200.28000091552735,208.22000000000048 200.27000091552736,214.0700000000005 200.27000091552736,219.91000000000048 C197.82000091552732,219.9000000000005 195.38000091552732,219.9000000000005 192.94000091552732,219.91000000000048 C192.94000091552732,204.2700000000005 192.94000091552732,188.6400000000005 192.94000091552732,173.0000000000005 M200.28000091552735,179.5200000000005 C200.27000091552736,184.91000000000048 200.27000091552736,190.30000000000052 200.28000091552735,195.6900000000005 C202.45000091552737,195.3200000000005 205.29000091552734,196.2000000000005 206.86000091552734,194.2100000000005 C207.79000091552734,190.24000000000052 207.48000091552734,186.04000000000048 207.14000091552737,182.0100000000005 C206.47000091552735,178.91000000000048 202.58000091552736,179.8400000000005 200.28000091552735,179.5200000000005 z" id="svg_8"/>
<path fill="#ffffff" opacity="1" d="M272.09000091552736,179.67000000000053 C272.10000091552735,177.43000000000052 272.11000091552734,175.2000000000005 272.1300009155273,172.9600000000005 C279.73000091552734,173.0800000000005 287.34000091552736,173.0100000000005 294.9400009155273,173.0000000000005 C294.9400009155273,175.2200000000005 294.9400009155273,177.4400000000005 294.9400009155273,179.67000000000053 C292.36000091552734,179.6500000000005 289.77000091552736,179.6400000000005 287.1900009155273,179.6400000000005 C287.20000091552737,193.0600000000005 287.17000091552734,206.48000000000047 287.20000091552737,219.91000000000048 C284.76000091552737,219.9500000000005 282.3100009155273,219.99000000000052 279.8700009155273,220.0200000000005 C279.83000091552736,206.5600000000005 279.86000091552734,193.10000000000048 279.86000091552734,179.6400000000005 C277.27000091552736,179.6400000000005 274.68000091552733,179.6500000000005 272.09000091552736,179.67000000000053 z" id="svg_9"/>
<path fill="#ffffff" opacity="1" d="M114.88000091552735,309.7600000000005 C118.09000091552736,309.9800000000005 121.70000091552734,309.1400000000005 124.57000091552734,310.9300000000005 C126.64000091552734,312.6200000000005 125.43000091552733,315.3200000000005 123.89000091552734,316.8800000000005 C126.06000091552735,318.1500000000005 127.55000091552733,320.9700000000005 125.71000091552733,323.1800000000005 C122.88000091552735,325.9600000000005 118.45000091552734,324.6900000000005 114.89000091552734,325.0000000000005 C114.87000091552736,319.9200000000005 114.87000091552736,314.8400000000005 114.88000091552735,309.7600000000005 M116.88000091552735,311.3100000000005 C116.88000091552735,313.0000000000005 116.89000091552734,314.6900000000005 116.90000091552736,316.3900000000005 C119.19000091552735,315.9300000000005 123.10000091552735,317.1500000000005 123.75000091552735,313.9500000000005 C123.51000091552734,310.5000000000005 119.14000091552734,311.7600000000005 116.88000091552735,311.3100000000005 M116.91000091552735,317.7400000000005 C116.90000091552736,319.6300000000005 116.89000091552734,321.5200000000005 116.88000091552735,323.4200000000005 C119.28000091552735,322.9500000000005 124.05000091552733,324.3800000000005 124.44000091552735,320.8800000000005 C124.70000091552734,316.9400000000005 119.39000091552734,318.0900000000005 116.91000091552735,317.7400000000005 z" id="svg_10"/>
</g><g id="#fefefeff" class="" opacity="1">
<path fill="#fefefe" opacity="1" d="M173.23000091552734,42.3400000000005 C183.58000091552736,39.5000000000005 194.00000091552732,36.8700000000005 204.38000091552732,34.1400000000005 C210.09000091552736,43.300000000000495 215.87000091552733,52.41000000000051 221.53000091552735,61.600000000000506 C209.33000091552736,77.2300000000005 197.24000091552733,92.94000000000051 185.13000091552732,108.6400000000005 C184.44000091552732,104.3000000000005 183.81000091552733,99.94000000000051 183.08000091552736,95.6000000000005 C192.30000091552733,84.9500000000005 201.58000091552736,74.34000000000049 210.82000091552732,63.69000000000051 C207.73000091552734,56.330000000000496 204.66000091552735,48.9500000000005 201.58000091552736,41.580000000000496 C194.86000091552734,44.7800000000005 187.89000091552737,47.4500000000005 181.28000091552735,50.850000000000506 C179.21000091552736,54.5100000000005 178.70000091552737,58.8900000000005 177.27000091552736,62.84000000000049 C175.78000091552735,56.040000000000504 174.67000091552734,49.16000000000051 173.23000091552734,42.3400000000005 z" id="svg_11"/>
<path fill="#fefefe" opacity="1" d="M7.4800009155273415,173.0300000000005 C11.100000915527346,173.0100000000005 14.730000915527341,173.0100000000005 18.350000915527346,173.0300000000005 C20.84000091552734,188.68000000000052 23.33000091552735,204.3200000000005 25.860000915527337,219.9600000000005 C23.380000915527347,219.98000000000047 20.890000915527338,219.99000000000052 18.400000915527343,220.0100000000005 C17.990000915527347,217.1400000000005 17.56000091552734,214.2700000000005 17.110000915527337,211.41000000000048 C14.100000915527346,211.43000000000052 11.090000915527341,211.43000000000052 8.08000091552735,211.41000000000048 C7.640000915527338,214.2700000000005 7.190000915527349,217.1300000000005 6.780000915527339,219.99000000000052 C4.520000915527348,220.0000000000005 2.2600009155273426,220.0000000000005 9.155273374972239e-7,220.0000000000005 C2.4800009155273415,204.3400000000005 5.050000915527349,188.7000000000005 7.4800009155273415,173.0300000000005 M8.990000915527347,205.0900000000005 C11.370000915527342,205.0900000000005 13.750000915527337,205.0900000000005 16.120000915527342,205.0900000000005 C14.880000915527347,197.30000000000052 13.910000915527348,189.4600000000005 12.550000915527349,181.6900000000005 C11.20000091552734,189.4600000000005 10.240000915527347,197.30000000000052 8.990000915527347,205.0900000000005 z" id="svg_12"/>
<path fill="#fefefe" opacity="1" d="M110.85000091552735,173.0100000000005 C113.28000091552735,173.0100000000005 115.72000091552735,172.9900000000005 118.16000091552735,172.9600000000005 C118.24000091552733,179.72000000000048 118.11000091552734,186.48000000000047 118.23000091552734,193.24000000000052 C121.55000091552733,186.5800000000005 124.71000091552733,179.8400000000005 127.87000091552736,173.1100000000005 C130.33000091552734,173.0300000000005 132.80000091552733,172.9600000000005 135.26000091552734,172.8800000000005 C131.87000091552736,179.91000000000048 128.42000091552734,186.92000000000053 124.96000091552733,193.92000000000053 C128.42000091552734,202.61000000000053 131.86000091552734,211.3200000000005 135.26000091552734,220.03000000000048 C132.71000091552733,220.0000000000005 130.16000091552735,219.9400000000005 127.61000091552734,219.8800000000005 C125.26000091552734,213.61000000000053 122.83000091552734,207.37000000000052 120.45000091552734,201.11000000000053 C116.64000091552734,206.7000000000005 118.68000091552733,213.68000000000052 118.18000091552733,219.98000000000047 C115.74000091552733,219.99000000000052 113.30000091552733,219.99000000000052 110.86000091552734,220.0000000000005 C110.82000091552734,204.3400000000005 110.85000091552735,188.67000000000053 110.85000091552735,173.0100000000005 z" id="svg_13"/>
<path fill="#fefefe" opacity="1" d="M138.67000091552734,173.0100000000005 C143.67000091552734,173.1400000000005 148.71000091552733,172.6700000000005 153.68000091552733,173.3800000000005 C156.97000091552735,173.8500000000005 159.67000091552734,176.5700000000005 160.26000091552737,179.8200000000005 C161.30000091552733,185.0100000000005 161.25000091552732,191.5800000000005 156.41000091552735,194.91000000000048 C162.27000091552736,198.04000000000048 161.65000091552736,205.3800000000005 161.26000091552737,211.0100000000005 C161.10000091552735,215.18000000000052 157.86000091552734,219.03000000000048 153.67000091552734,219.5900000000005 C148.71000091552733,220.28000000000048 143.68000091552733,219.8800000000005 138.69000091552735,219.99000000000052 C138.63000091552735,204.3300000000005 138.69000091552735,188.67000000000053 138.67000091552734,173.0100000000005 M146.03000091552735,179.5000000000005 C146.01000091552734,183.78000000000048 146.00000091552735,188.05000000000052 146.03000091552735,192.3300000000005 C148.27000091552733,191.9000000000005 151.45000091552734,192.5600000000005 152.76000091552737,190.18000000000052 C153.61000091552734,187.42000000000053 153.54000091552734,184.3300000000005 152.84000091552736,181.55000000000052 C151.67000091552734,178.9400000000005 148.27000091552733,179.91000000000048 146.03000091552735,179.5000000000005 M146.03000091552735,198.62000000000052 C146.00000091552735,203.53000000000048 146.01000091552734,208.4500000000005 146.02000091552733,213.37000000000052 C148.56000091552735,212.98000000000047 152.80000091552733,214.2000000000005 153.78000091552735,210.91000000000048 C154.26000091552737,207.6500000000005 154.34000091552736,204.2500000000005 153.59000091552736,201.03000000000048 C152.27000091552736,198.1500000000005 148.55000091552733,199.0200000000005 146.03000091552735,198.62000000000052 z" id="svg_14"/>
<path fill="#fefefe" opacity="1" d="M163.74000091552733,220.03000000000048 C166.18000091552733,204.3200000000005 168.70000091552737,188.6300000000005 171.27000091552736,172.9500000000005 C174.83000091552736,173.0300000000005 178.41000091552735,173.0300000000005 181.98000091552734,172.9500000000005 C184.56000091552733,188.62000000000052 187.10000091552735,204.30000000000052 189.49000091552733,219.99000000000052 C187.05000091552733,220.0000000000005 184.60000091552735,220.0000000000005 182.16000091552735,220.0200000000005 C181.70000091552737,217.1500000000005 181.24000091552733,214.29000000000048 180.82000091552732,211.43000000000052 C177.80000091552733,211.43000000000052 174.77000091552736,211.42000000000053 171.75000091552732,211.43000000000052 C171.32000091552732,214.24000000000052 170.93000091552733,217.05000000000052 170.55000091552733,219.87000000000052 C168.28000091552735,219.92000000000053 166.00000091552732,219.98000000000047 163.74000091552733,220.03000000000048 M176.39000091552737,181.60000000000048 C174.90000091552736,189.3800000000005 173.91000091552735,197.2500000000005 172.73000091552734,205.0900000000005 C175.10000091552735,205.0900000000005 177.47000091552735,205.0900000000005 179.84000091552736,205.0900000000005 C178.64000091552737,197.2700000000005 177.44000091552732,189.4400000000005 176.39000091552737,181.60000000000048 z" id="svg_15"/>
<path fill="#fefefe" opacity="1" d="M218.13000091552732,172.9800000000005 C220.33000091552736,173.0000000000005 222.53000091552735,173.0200000000005 224.74000091552733,173.0300000000005 C224.82000091552732,182.2700000000005 224.54000091552734,191.5100000000005 224.90000091552736,200.74000000000052 C227.24000091552733,191.4500000000005 229.79000091552734,182.22000000000048 232.29000091552734,172.9800000000005 C235.39000091552737,173.0100000000005 238.49000091552733,173.0200000000005 241.60000091552735,173.0500000000005 C241.50000091552732,188.7000000000005 241.77000091552736,204.35000000000048 241.47000091552735,220.0000000000005 C239.29000091552734,220.0000000000005 237.11000091552734,220.0000000000005 234.94000091552732,220.0000000000005 C234.82000091552732,208.8200000000005 235.07000091552732,197.6300000000005 234.81000091552733,186.4500000000005 C231.65000091552736,197.60000000000048 228.76000091552737,208.8200000000005 225.69000091552732,219.99000000000052 C223.17000091552734,220.0000000000005 220.65000091552736,220.0000000000005 218.13000091552732,220.0000000000005 C218.10000091552735,204.3300000000005 218.11000091552734,188.6500000000005 218.13000091552732,172.9800000000005 z" id="svg_16"/>
<path fill="#fefefe" opacity="1" d="M244.91000091552735,220.0200000000005 C247.47000091552735,204.3900000000005 249.72000091552735,188.7000000000005 252.53000091552735,173.1200000000005 C256.08000091552736,172.8500000000005 259.65000091552736,173.0500000000005 263.21000091552736,173.0100000000005 C265.77000091552736,188.6300000000005 268.20000091552737,204.2700000000005 270.7500009155273,219.9000000000005 C268.27000091552736,219.9500000000005 265.79000091552734,220.0000000000005 263.3100009155273,220.0200000000005 C262.89000091552737,217.1500000000005 262.45000091552737,214.28000000000048 262.01000091552737,211.41000000000048 C259.0000009155273,211.43000000000052 255.98000091552734,211.43000000000052 252.97000091552735,211.42000000000053 C252.53000091552735,214.23000000000047 252.11000091552734,217.05000000000052 251.71000091552736,219.8800000000005 C249.44000091552732,219.92000000000053 247.17000091552734,219.97000000000048 244.91000091552735,220.0200000000005 M257.48000091552734,181.74000000000052 C256.0700009155273,189.49000000000052 255.13000091552732,197.3100000000005 253.90000091552736,205.0900000000005 C256.27000091552736,205.0900000000005 258.65000091552736,205.0900000000005 261.03000091552735,205.0900000000005 C259.78000091552735,197.3200000000005 258.8100009155273,189.5000000000005 257.48000091552734,181.74000000000052 z" id="svg_17"/>
<path fill="#fefefe" opacity="1" d="M137.40000091552736,309.8000000000005 C141.53000091552735,310.2200000000005 146.24000091552733,308.6200000000005 149.89000091552734,311.1000000000005 C146.44000091552735,311.6400000000005 142.93000091552733,311.4800000000005 139.46000091552733,311.5100000000005 C139.45000091552734,313.1200000000005 139.45000091552734,314.7300000000005 139.46000091552733,316.3400000000005 C142.37000091552736,316.3500000000005 145.28000091552735,316.3400000000005 148.20000091552734,316.3300000000005 C148.23000091552734,316.7500000000005 148.30000091552733,317.5800000000005 148.33000091552734,318.0000000000005 C145.37000091552736,318.0200000000005 142.41000091552735,318.0200000000005 139.45000091552734,318.0500000000005 C139.45000091552734,319.7900000000005 139.45000091552734,321.5200000000005 139.46000091552733,323.2700000000005 C142.73000091552734,323.2700000000005 146.00000091552735,323.2700000000005 149.28000091552735,323.2600000000005 C149.31000091552735,323.6700000000005 149.38000091552735,324.5100000000005 149.42000091552734,324.9200000000005 C145.41000091552735,325.0200000000005 141.40000091552736,325.0000000000005 137.40000091552736,324.8900000000005 C137.41000091552735,319.8600000000005 137.40000091552736,314.8300000000005 137.40000091552736,309.8000000000005 z" id="svg_18"/>
<path fill="#fefefe" opacity="1" d="M160.22000091552735,309.1600000000005 C163.44000091552732,310.3900000000005 161.53000091552735,314.5000000000005 162.27000091552736,317.0600000000005 C165.66000091552735,315.1000000000005 166.48000091552734,310.3600000000005 170.46000091552736,309.3400000000005 C169.02000091552736,311.9400000000005 167.28000091552735,314.3600000000005 165.52000091552736,316.7600000000005 C167.40000091552736,319.6000000000005 169.34000091552736,322.4100000000005 171.00000091552732,325.4000000000005 C166.20000091552737,325.1300000000005 166.66000091552735,318.1900000000005 162.15000091552736,317.5400000000005 C161.51000091552737,320.1400000000005 163.57000091552732,324.4600000000005 160.18000091552733,325.5400000000005 C159.99000091552733,320.0800000000005 159.95000091552737,314.6100000000005 160.22000091552735,309.1600000000005 z" id="svg_19"/>
</g><g id="#fab57eff" class="" opacity="1">
<path fill="#fab57e" opacity="1" d="M107.53000091552735,35.470000000000496 C119.29000091552734,36.9000000000005 131.06000091552735,38.350000000000506 142.83000091552734,39.7500000000005 C147.67000091552734,71.94000000000051 152.41000091552735,104.1400000000005 157.28000091552735,136.3300000000005 C134.48000091552734,138.3500000000005 111.68000091552733,140.3100000000005 88.89000091552734,142.4000000000005 C95.12000091552736,106.7600000000005 101.37000091552736,71.12000000000049 107.53000091552735,35.470000000000496 z" id="svg_20"/>
<path fill="#fab57e" opacity="1" d="M150.54000091552734,40.7000000000005 C156.43000091552733,41.4800000000005 162.34000091552736,42.13000000000051 168.22000091552735,42.960000000000505 C173.62000091552733,73.16000000000051 179.08000091552736,103.3500000000005 184.51000091552737,133.5500000000005 C176.23000091552734,134.3800000000005 167.94000091552732,135.1800000000005 159.64000091552737,135.8300000000005 C156.68000091552733,104.1100000000005 153.44000091552732,72.4200000000005 150.54000091552734,40.7000000000005 z" id="svg_21"/>
<path fill="#fab57e" opacity="1" d="M118.08000091552734,259.1500000000005 C120.83000091552734,254.7700000000005 123.51000091552734,250.36000000000053 126.31000091552735,246.0100000000005 C131.47000091552735,246.0900000000005 136.63000091552735,246.0600000000005 141.79000091552734,246.0900000000005 C136.57000091552734,253.91000000000048 131.37000091552736,261.7600000000005 126.16000091552735,269.6000000000005 C132.00000091552735,277.0800000000005 137.96000091552733,284.4700000000005 143.71000091552733,292.0200000000005 C138.97000091552735,291.9400000000005 134.23000091552734,291.8600000000005 129.49000091552733,291.9100000000005 C125.98000091552734,287.5500000000005 122.54000091552734,283.1500000000005 118.97000091552735,278.8400000000005 C115.57000091552734,283.2300000000005 112.32000091552734,287.7400000000005 108.80000091552733,292.0400000000005 C103.44000091552735,291.7900000000005 98.07000091552734,291.8000000000005 92.70000091552734,291.7700000000005 C98.89000091552734,284.5000000000005 105.02000091552733,277.1800000000005 111.25000091552735,269.9400000000005 C105.44000091552735,263.2900000000005 99.71000091552733,256.5700000000005 93.94000091552735,249.8900000000005 C99.14000091552734,249.6400000000005 104.35000091552735,249.4400000000005 109.55000091552733,249.1400000000005 C112.38000091552735,252.48000000000047 115.21000091552733,255.8400000000005 118.08000091552734,259.1500000000005 z" id="svg_22"/>
<path fill="#fab57e" opacity="1" d="M179.85000091552735,246.12000000000052 C185.06000091552733,246.04000000000048 190.28000091552735,246.0700000000005 195.49000091552733,246.05000000000052 C190.30000091552733,253.9400000000005 185.02000091552736,261.7600000000005 179.86000091552734,269.6700000000005 C185.79000091552734,277.0600000000005 191.63000091552732,284.5300000000005 197.45000091552737,292.0100000000005 C192.75000091552732,291.8600000000005 188.05000091552733,291.8600000000005 183.35000091552735,292.0200000000005 C179.72000091552735,287.6600000000005 176.26000091552737,283.1700000000005 172.67000091552734,278.7900000000005 C169.37000091552733,283.1900000000005 166.05000091552733,287.5700000000005 162.70000091552737,291.9300000000005 C157.27000091552736,291.8400000000005 151.85000091552735,291.8200000000005 146.42000091552734,291.7500000000005 C152.59000091552736,284.4800000000005 158.75000091552732,277.1800000000005 164.95000091552737,269.9300000000005 C159.16000091552735,263.28000000000054 153.40000091552736,256.6000000000005 147.68000091552733,249.8900000000005 C152.91000091552735,249.6400000000005 158.14000091552737,249.4000000000005 163.37000091552733,249.1900000000005 C166.13000091552732,252.5600000000005 168.93000091552733,255.9000000000005 171.81000091552733,259.1600000000005 C174.48000091552734,254.8100000000005 177.20000091552737,250.49000000000052 179.85000091552735,246.12000000000052 z" id="svg_23"/>
</g></g></g></svg>