<svg width="23pt" height="40" viewBox="0 0 23 30" xmlns="http://www.w3.org/2000/svg"><path opacity=".89" d="M0 0h1.82c.07 2.67.07 5.34.09 8 .44.4 1.32 1.19 1.76 1.58 0-3.19 0-6.39.09-9.58h1.78c.35 3.21.16 6.45.37 9.67C8.29 7.04 6.97 3.21 7.46 0h1.76c.26 4.14 1.37 9.91-3.42 11.88-.2 6.04.27 12.1-.27 18.12H3.79c-.25-6.04-.01-12.08-.16-18.11C2.22 11 .81 10.03 0 8.53V0zm17.39 0h1.87C22.51 4.42 22.6 10.19 23 15.44v4.11c-1.23.1-2.45.2-3.68.29.02 3.39.01 6.77-.08 10.16h-1.78c-.43-9.98-.27-20.01-.07-30m1.96 17.94c.44-.15 1.32-.45 1.77-.59.06-4.13-.87-8.18-1.35-12.26-.96 4.2-.25 8.57-.42 12.85z" fill="#fff"/></svg>