<svg width="26pt" height="29pt" viewBox="0 0 26 29" xmlns="http://www.w3.org/2000/svg"><path fill="#fcfcfc" d="M20.6 0H26v1.43c-4.52 4.65-3.2 11.42-4.56 17.18-2.05 6.24-9.43 7.81-15.21 7.15-.08-.63-.23-1.89-.3-2.52 4.69.17 10.97-.22 12.98-5.32 1.22-5.05.57-10.46 2.73-15.31-6.05.81-12.95 1.89-16.98 6.97-2.7 3.09-1.95 7.44-1.87 11.18 2.41-4.39 5.52-8.48 9.64-11.4 1.12-1.33 3.31 1.34 1.39 2.15C8.13 15.89 4.56 22.26 2.38 29H.48c.05-2.37 1.2-4.72.29-7.05-1.14-4.7-1.32-10.28 1.97-14.19C6.98 2.36 14.18.9 20.6 0z"/></svg>