<?xml version="1.0" encoding="UTF-8" ?>
<!DOCTYPE svg PUBLIC "-//W3C//DTD SVG 1.1//EN" "http://www.w3.org/Graphics/SVG/1.1/DTD/svg11.dtd">
<svg width="26pt" height="31pt" viewBox="0 0 26 31" version="1.1" xmlns="http://www.w3.org/2000/svg">
<g id="#ffffffff">
<path fill="#ffffff" opacity="1.00" d=" M 4.28 0.00 L 21.82 0.00 C 21.82 0.49 21.83 1.47 21.83 1.96 C 19.08 1.99 16.32 2.08 13.58 2.21 C 19.66 2.85 25.12 7.33 26.00 13.54 L 26.00 16.88 C 25.40 21.10 22.64 24.51 19.17 26.78 C 20.13 27.68 21.07 28.58 22.03 29.48 L 20.80 30.99 L 22.01 31.00 L 20.67 31.00 C 19.44 29.93 18.26 28.81 17.06 27.70 C 14.38 28.11 11.67 28.12 8.99 27.72 C 7.88 28.81 6.77 29.90 5.65 30.99 L 6.94 31.00 L 5.61 31.00 C 5.22 30.69 4.45 30.08 4.07 29.78 C 4.98 28.77 5.93 27.79 6.87 26.80 C 3.31 24.51 0.52 20.99 0.00 16.69 L 0.00 13.75 C 0.71 7.31 6.42 2.93 12.54 2.08 C 9.80 2.03 7.06 1.99 4.32 1.98 C 4.31 1.49 4.29 0.50 4.28 0.00 M 1.81 14.89 C 2.68 14.67 4.44 14.24 5.31 14.02 C 7.47 15.39 4.08 18.29 3.91 15.04 C 3.28 15.70 2.65 16.35 2.00 17.00 C 3.15 22.06 7.72 26.26 13.04 26.10 C 18.34 26.22 22.86 22.03 24.00 17.00 C 23.35 16.35 22.72 15.70 22.09 15.04 L 21.65 16.28 L 20.52 16.53 C 18.62 13.60 22.50 13.92 24.19 14.89 C 23.68 9.23 18.77 4.29 12.99 4.42 C 7.20 4.30 2.34 9.25 1.81 14.89 Z" />
<path fill="#ffffff" opacity="1.00" d=" M 12.00 6.81 C 12.52 6.81 13.55 6.81 14.06 6.81 C 14.06 9.99 14.10 13.17 13.96 16.35 C 13.50 16.25 12.60 16.04 12.15 15.94 C 11.85 12.90 12.04 9.85 12.00 6.81 Z" />
<path fill="#ffffff" opacity="1.00" d=" M 6.04 8.74 C 7.32 7.60 9.44 9.22 8.27 10.68 C 7.18 12.64 4.33 10.11 6.04 8.74 Z" />
<path fill="#ffffff" opacity="1.00" d=" M 17.05 9.74 C 17.33 9.25 17.89 8.25 18.17 7.75 C 19.41 7.78 19.99 8.45 19.92 9.77 C 19.63 11.22 17.33 11.19 17.05 9.74 Z" />
<path fill="#ffffff" opacity="1.00" d=" M 17.51 20.70 C 17.99 20.21 18.47 19.73 18.95 19.24 C 19.46 19.70 19.98 20.17 20.50 20.64 C 20.13 21.00 19.40 21.74 19.03 22.11 C 18.65 21.76 17.89 21.05 17.51 20.70 Z" />
<path fill="#ffffff" opacity="1.00" d=" M 6.57 20.11 C 7.92 18.44 9.90 21.21 8.53 22.38 C 7.09 23.73 5.10 21.40 6.57 20.11 Z" />
<path fill="#ffffff" opacity="1.00" d=" M 12.20 22.05 C 13.67 20.78 15.27 23.44 13.81 24.42 C 12.36 25.60 10.85 23.06 12.20 22.05 Z" />
</g>
</svg>
