<?xml version="1.0" encoding="UTF-8" ?>
<!DOCTYPE svg PUBLIC "-//W3C//DTD SVG 1.1//EN" "http://www.w3.org/Graphics/SVG/1.1/DTD/svg11.dtd">
<svg width="26pt" height="29pt" viewBox="0 0 26 29" version="1.1" xmlns="http://www.w3.org/2000/svg">
<g id="#fcfcfcfc">
<path fill="#fcfcfc" opacity="1.00" d=" M 20.60 0.00 L 26.00 0.00 L 26.00 1.43 C 21.48 6.08 22.80 12.85 21.44 18.61 C 19.39 24.85 12.01 26.42 6.23 25.76 C 6.15 25.13 6.00 23.87 5.93 23.24 C 10.62 23.41 16.90 23.02 18.91 17.92 C 20.13 12.87 19.48 7.46 21.64 2.61 C 15.59 3.42 8.69 4.50 4.66 9.58 C 1.96 12.67 2.71 17.02 2.79 20.76 C 5.20 16.37 8.31 12.28 12.43 9.36 C 13.55 8.03 15.74 10.70 13.82 11.51 C 8.13 15.89 4.56 22.26 2.38 29.00 L 0.48 29.00 C 0.53 26.63 1.68 24.28 0.77 21.95 C -0.37 17.25 -0.55 11.67 2.74 7.76 C 6.98 2.36 14.18 0.90 20.60 0.00 Z" />
</g>
</svg>
