<svg width="26pt" height="31pt" viewBox="0 0 26 31" xmlns="http://www.w3.org/2000/svg"><g fill="#fff"><path d="M4.28 0h17.54c0 .49.01 1.47.01 1.96-2.75.03-5.51.12-8.25.25 6.08.64 11.54 5.12 12.42 11.33v3.34c-.6 4.22-3.36 7.63-6.83 9.9.96.9 1.9 1.8 2.86 2.7l-1.23 1.51 1.21.01h-1.34c-1.23-1.07-2.41-2.19-3.61-3.3-2.68.41-5.39.42-8.07.02-1.11 1.09-2.22 2.18-3.34 3.27l1.29.01H5.61l-1.54-1.22c.91-1.01 1.86-1.99 2.8-2.98C3.31 24.51.52 20.99 0 16.69v-2.94C.71 7.31 6.42 2.93 12.54 2.08c-2.74-.05-5.48-.09-8.22-.1L4.28 0M1.81 14.89c.87-.22 2.63-.65 3.5-.87 2.16 1.37-1.23 4.27-1.4 1.02C3.28 15.7 2.65 16.35 2 17c1.15 5.06 5.72 9.26 11.04 9.1 5.3.12 9.82-4.07 10.96-9.1-.65-.65-1.28-1.3-1.91-1.96l-.44 1.24-1.13.25c-1.9-2.93 1.98-2.61 3.67-1.64-.51-5.66-5.42-10.6-11.2-10.47C7.2 4.3 2.34 9.25 1.81 14.89z"/><path d="M12 6.81h2.06c0 3.18.04 6.36-.1 9.54-.46-.1-1.36-.31-1.81-.41-.3-3.04-.11-6.09-.15-9.13zM6.04 8.74c1.28-1.14 3.4.48 2.23 1.94-1.09 1.96-3.94-.57-2.23-1.94zm11.01 1c.28-.49.84-1.49 1.12-1.99 1.24.03 1.82.7 1.75 2.02-.29 1.45-2.59 1.42-2.87-.03zm.46 10.96c.48-.49.96-.97 1.44-1.46l1.55 1.4c-.37.36-1.1 1.1-1.47 1.47-.38-.35-1.14-1.06-1.52-1.41zm-10.94-.59c1.35-1.67 3.33 1.1 1.96 2.27-1.44 1.35-3.43-.98-1.96-2.27zm5.63 1.94c1.47-1.27 3.07 1.39 1.61 2.37-1.45 1.18-2.96-1.36-1.61-2.37z"/></g></svg>