<?xml version="1.0" encoding="UTF-8" ?>
<!DOCTYPE svg PUBLIC "-//W3C//DTD SVG 1.1//EN" "http://www.w3.org/Graphics/SVG/1.1/DTD/svg11.dtd">
<svg width="23pt" height="30pt" viewBox="0 0 23 30" version="1.1" xmlns="http://www.w3.org/2000/svg">
<g id="#ffffffe3">
<path fill="#ffffff" opacity="0.89" d=" M 0.00 0.00 L 1.82 0.00 C 1.89 2.67 1.89 5.34 1.91 8.00 C 2.35 8.40 3.23 9.19 3.67 9.58 C 3.67 6.39 3.67 3.19 3.76 0.00 L 5.54 0.00 C 5.89 3.21 5.70 6.45 5.91 9.67 C 8.29 7.04 6.97 3.21 7.46 0.00 L 9.22 0.00 C 9.48 4.14 10.59 9.91 5.80 11.88 C 5.60 17.92 6.07 23.98 5.53 30.00 L 3.79 30.00 C 3.54 23.96 3.78 17.92 3.63 11.89 C 2.22 11.00 0.81 10.03 0.00 8.53 L 0.00 0.00 Z" />
<path fill="#ffffff" opacity="0.89" d=" M 17.39 0.00 L 19.26 0.00 C 22.51 4.42 22.60 10.19 23.00 15.44 L 23.00 19.55 C 21.77 19.65 20.55 19.75 19.32 19.84 C 19.34 23.23 19.33 26.61 19.24 30.00 L 17.46 30.00 C 17.03 20.02 17.19 9.99 17.39 0.00 M 19.35 17.94 C 19.79 17.79 20.67 17.49 21.12 17.35 C 21.18 13.22 20.25 9.17 19.77 5.09 C 18.81 9.29 19.52 13.66 19.35 17.94 Z" />
</g>
</svg>
