<svg width="29pt" height="31pt" viewBox="0 0 29 31" xmlns="http://www.w3.org/2000/svg"><g fill="#fff"><path opacity=".92" d="M10.19 0h2.09c4.26.63 3.24 8.17-1.21 7.17-3.71-.35-3.83-5.63-.88-7.17m.22 2.39c-1.88 1.41.98 4.18 2.34 2.38 1.72-1.29-.9-4.34-2.34-2.38z"/><path opacity=".92" d="M0 7.44c.48-.03 1.43-.08 1.91-.11.05 5.9-.06 11.81.03 17.71.08 1.42.16 3.75 2.13 3.66 6.95.19 13.94.19 20.89 0 1.91.06 2.03-2.21 2.11-3.61.08-5.93-.03-11.87.02-17.8.48.03 1.43.1 1.91.13v20.7c-1.17.74-2.14 1.74-2.91 2.88H2.87A9.863 9.863 0 0 0 0 28.08V7.44z"/><path opacity=".92" d="M17.51 9.76c3.11-1.16 7.65.21 9.01 3.26-1.28 2.52-3.57-1.34-5.43-1.22-4.29-1.24-6.29 3.73-10.12 4.33-3.2.83-6.72-.52-8.72-3.12 1.49-2.73 3.6.73 5.5 1.07 4.08 1.02 6.29-3.28 9.76-4.32zM6.22 18.18c2.23-3.13 6.53 1.52 3.88 3.84-2.25 2.72-6.5-1.51-3.88-3.84zm13.2.12c4.38-1.97 6.83 5.5 2.47 6.72-4.12 1.46-6.35-4.98-2.47-6.72m.12 2.24c-.27 1.07.96 4.06 2.18 2.1 1.76-1.22-.89-2.77-2.18-2.1z"/></g></svg>