<?xml version="1.0" encoding="UTF-8" ?>
<!DOCTYPE svg PUBLIC "-//W3C//DTD SVG 1.1//EN" "http://www.w3.org/Graphics/SVG/1.1/DTD/svg11.dtd">
<svg width="29pt" height="31pt" viewBox="0 0 29 31" version="1.1" xmlns="http://www.w3.org/2000/svg">
<g id="#ffffffeb">
<path fill="#ffffff" opacity="0.92" d=" M 10.19 0.00 L 12.28 0.00 C 16.54 0.63 15.52 8.17 11.07 7.17 C 7.36 6.82 7.24 1.54 10.19 0.00 M 10.41 2.39 C 8.53 3.80 11.39 6.57 12.75 4.77 C 14.47 3.48 11.85 0.43 10.41 2.39 Z" />
<path fill="#ffffff" opacity="0.92" d=" M 0.00 7.44 C 0.48 7.41 1.43 7.36 1.91 7.33 C 1.96 13.23 1.85 19.14 1.94 25.04 C 2.02 26.46 2.10 28.79 4.07 28.70 C 11.02 28.89 18.01 28.89 24.96 28.70 C 26.87 28.76 26.99 26.49 27.07 25.09 C 27.15 19.16 27.04 13.22 27.09 7.29 C 27.57 7.32 28.52 7.39 29.00 7.42 L 29.00 28.12 C 27.83 28.86 26.86 29.86 26.09 31.00 L 2.87 31.00 C 2.13 29.84 1.15 28.84 0.00 28.08 L 0.00 7.44 Z" />
<path fill="#ffffff" opacity="0.92" d=" M 17.51 9.76 C 20.62 8.60 25.16 9.97 26.52 13.02 C 25.24 15.54 22.95 11.68 21.09 11.80 C 16.80 10.56 14.80 15.53 10.97 16.13 C 7.77 16.96 4.25 15.61 2.25 13.01 C 3.74 10.28 5.85 13.74 7.75 14.08 C 11.83 15.10 14.04 10.80 17.51 9.76 Z" />
<path fill="#ffffff" opacity="0.92" d=" M 6.22 18.18 C 8.45 15.05 12.75 19.70 10.10 22.02 C 7.85 24.74 3.60 20.51 6.22 18.18 Z" />
<path fill="#ffffff" opacity="0.92" d=" M 19.42 18.30 C 23.80 16.33 26.25 23.80 21.89 25.02 C 17.77 26.48 15.54 20.04 19.42 18.30 M 19.54 20.54 C 19.27 21.61 20.50 24.60 21.72 22.64 C 23.48 21.42 20.83 19.87 19.54 20.54 Z" />
</g>
</svg>
