<?xml version="1.0" encoding="UTF-8" ?>
<!DOCTYPE svg PUBLIC "-//W3C//DTD SVG 1.1//EN" "http://www.w3.org/Graphics/SVG/1.1/DTD/svg11.dtd">
<svg width="33pt" height="38pt" viewBox="0 0 33 38" version="1.1" xmlns="http://www.w3.org/2000/svg">
<g id="#ef6251ff">
<path fill="#ef6251" opacity="1.00" d=" M 23.13 0.00 L 24.54 0.00 C 25.10 3.03 25.52 6.08 25.83 9.14 C 26.00 11.84 26.04 14.54 26.09 17.24 C 22.50 17.35 18.91 17.46 15.33 17.83 C 13.79 17.98 12.25 18.16 10.72 18.35 C 9.15 18.37 7.59 18.37 6.02 18.39 C 6.09 15.55 6.13 12.71 6.17 9.87 C 6.27 6.67 6.13 3.37 7.38 0.36 C 8.37 1.76 9.36 3.16 10.28 4.61 C 14.26 4.22 18.26 4.38 22.25 4.23 C 22.88 2.84 23.47 1.43 24.03 0.01 L 23.13 0.00 M 12.38 14.40 C 12.11 15.78 12.66 16.30 14.04 15.96 C 14.32 14.58 13.77 14.06 12.38 14.40 M 18.23 15.22 C 18.86 16.50 19.55 16.50 20.32 15.20 C 19.68 13.94 18.98 13.95 18.23 15.22 Z" />
<path fill="#ef6251" opacity="1.00" d=" M 25.86 19.01 C 26.85 18.69 27.83 18.38 28.83 18.10 C 28.61 18.24 28.18 18.51 27.96 18.65 C 24.89 22.68 21.38 26.49 17.00 29.12 C 15.60 30.12 13.99 29.00 12.65 28.45 C 9.05 26.75 6.18 23.89 3.76 20.79 C 4.25 20.82 5.24 20.88 5.73 20.92 C 8.91 23.63 11.96 26.56 15.57 28.69 C 16.19 28.54 17.41 28.24 18.02 28.10 C 15.76 26.64 13.18 25.33 12.34 22.53 C 13.77 22.64 15.20 22.69 16.63 22.69 C 17.22 24.14 17.92 25.55 18.77 26.88 C 21.01 24.15 23.43 21.57 25.86 19.01 Z" />
</g>
<g id="#fcc305ff">
<path fill="#fcc305" opacity="1.00" d=" M 25.83 9.14 C 28.55 11.28 30.61 14.09 32.14 17.17 C 31.31 17.40 29.66 17.86 28.83 18.10 C 27.83 18.38 26.85 18.69 25.86 19.01 L 26.29 17.55 C 23.63 17.58 20.98 17.66 18.33 17.73 C 17.58 17.76 16.08 17.80 15.33 17.83 C 18.91 17.46 22.50 17.35 26.09 17.24 C 26.04 14.54 26.00 11.84 25.83 9.14 Z" />
<path fill="#fcc305" opacity="1.00" d=" M 0.01 20.58 C 0.91 16.45 3.03 12.71 6.17 9.87 C 6.13 12.71 6.09 15.55 6.02 18.39 C 7.59 18.37 9.15 18.37 10.72 18.35 C 8.78 18.85 5.64 18.04 5.73 20.92 C 5.24 20.88 4.25 20.82 3.76 20.79 C 2.51 20.72 1.26 20.65 0.01 20.58 Z" />
<path fill="#fcc305" opacity="1.00" d=" M 25.79 26.07 C 27.38 23.22 30.46 21.76 33.00 19.90 L 33.00 25.37 C 32.26 30.21 29.49 34.42 25.69 37.43 C 25.61 33.65 25.28 29.83 25.79 26.07 Z" />
<path fill="#fcc305" opacity="1.00" d=" M 0.01 23.72 C 2.03 24.43 4.14 24.96 6.05 25.95 C 7.51 29.79 7.62 34.03 8.67 38.00 L 8.34 38.00 C 3.43 34.95 0.07 29.57 0.01 23.72 Z" />
</g>
<g id="#27100eff">
<path fill="#27100e" opacity="1.00" d=" M 12.38 14.40 C 13.77 14.06 14.32 14.58 14.04 15.96 C 12.66 16.30 12.11 15.78 12.38 14.40 Z" />
<path fill="#27100e" opacity="1.00" d=" M 18.23 15.22 C 18.98 13.95 19.68 13.94 20.32 15.20 C 19.55 16.50 18.86 16.50 18.23 15.22 Z" />
</g>
<g id="#0a040377">
<path fill="#0a0403" opacity="0.47" d=" M 15.33 17.83 C 16.08 17.80 17.58 17.76 18.33 17.73 C 17.72 19.09 17.39 20.55 16.78 21.90 C 17.48 21.84 18.88 21.73 19.58 21.67 C 18.61 22.05 17.63 22.39 16.63 22.69 C 15.20 22.69 13.77 22.64 12.34 22.53 C 12.18 22.21 11.86 21.57 11.70 21.25 C 13.08 21.54 14.45 21.83 15.83 22.12 C 15.74 20.68 15.56 19.25 15.33 17.83 Z" />
</g>
</svg>
