<svg width="192" height="116pt" viewBox="0 0 144 116" xmlns="http://www.w3.org/2000/svg"><path d="M0 0h86.79c-.49 2.76-1.02 5.51-1.48 8.27-8.43.32-16.86.18-25.29.37-1.77-2.97-4.2-5.49-7.29-7.09-.69 5.08-1.07 10.2-1.1 15.33C42 21.19 33.67 28.5 28.49 37.72c-2.72 4.46-4.42 9.43-6.32 14.27-7.06 4.47-14.48 8.57-20.67 14.25 6.39.15 12.8.41 19.11 1.61 2.55 13.33 7.47 27.28 18.62 35.85 5.63 4.93 12.58 7.79 19.26 10.96.5.34 1.49 1.01 1.99 1.34H0V0zm89.33 0H144v116H86.91c.57-.57 1.72-1.71 2.29-2.27 7.38-3.75 14.88-7.72 20.62-13.84 8.81-9.8 14.61-22.92 13.64-36.28 4.44-3.88 10.58-3.22 16.04-3.19-2.84-3.74-6.06-7.22-9.83-10.03-3.86-3.16-8.52-5.49-11.47-9.64-5.53-10.89-14.9-20.47-26.77-24.13-.98-5.5-1.78-11.04-2.1-16.62z" fill="#fff"/><path d="M86.79 0h2.54c.32 5.58 1.12 11.12 2.1 16.62.33 7.11.3 14.24.76 21.35l-1 .96c.1-.86.31-2.57.41-3.42-7.89.09-15.78.02-23.65.48-5.54.28-10.97 1.67-16.53 1.59.38-6.89.2-13.8.21-20.7.03-5.13.41-10.25 1.1-15.33 3.09 1.6 5.52 4.12 7.29 7.09 8.43-.19 16.86-.05 25.29-.37.46-2.76.99-5.51 1.48-8.27M63.85 28.02c.72 1.56.75 3.74 2.42 4.66 1.62.46 2.17-1.48 3.09-2.4-1.83-.78-3.66-1.53-5.51-2.26m11.7 3.82l3.54.6.88-3.09c-1.72.35-4.14.24-4.42 2.49zm16.76 18.43c4.46-5.02 10.35-8.48 15.92-12.13 3.48 3.82 6.02 8.47 6.38 13.72l3.27-.57c-.06-3.77-1.6-7.25-3.94-10.17 1.42-.12 2.84-.24 4.26-.37 2.95 4.15 7.61 6.48 11.47 9.64 3.77 2.81 6.99 6.29 9.83 10.03-5.46-.03-11.6-.69-16.04 3.19-3.32 3.26-5.09 7.61-6.75 11.86-3.41-.72-6.91-1.8-10.41-1.21-2.56 1.34-3.88 4.11-5.6 6.31-3.35-.22-6.88-.52-9.95 1.15-.41-7.24-.19-14.48-.37-21.72.11-3.28-.52-7.09 1.93-9.73z" fill="#ef6251"/><path d="M28.49 37.72C33.67 28.5 42 21.19 51.63 16.88c-.01 6.9.17 13.81-.21 20.7l-.04.77c-.09 1.14-.22 2.27-.35 3.41-.89.03-2.68.08-3.57.11-4.13-.01-8.28-.66-12.39-.13-2.83 1.16-3.98 4.31-5.47 6.75-2.52 1.07-5.03 2.16-7.43 3.5 1.9-4.84 3.6-9.81 6.32-14.27zm88.22 37.75c1.66-4.25 3.43-8.6 6.75-11.86.97 13.36-4.83 26.48-13.64 36.28-5.74 6.12-13.24 10.09-20.62 13.84-1.37.02-2.73.03-4.09.03 2.68-6.35 4.44-13.1 4.8-20 .03-3.67 2-8.36-1.44-11.06.76-.32 1.52-.65 2.28-.98 3.07-1.67 6.6-1.37 9.95-1.15 1.72-2.2 3.04-4.97 5.6-6.31 3.5-.59 7 .49 10.41 1.21zm-96.1-7.62c2.64 2.08 4.57 4.88 6.3 7.72 4.58-.43 9.36-1.91 13.89-.51 1.51 2.81 2.18 5.98 3.1 9.02 4.2-2.45 8.69-4.35 13.39-5.58.69 4.04 1.2 8.12 2.13 12.12.78 3.87 1.58 7.74 2.44 11.59.74 3.42 1.6 6.81 2.58 10.17-1.98.77-3.96 1.55-5.95 2.28-6.68-3.17-13.63-6.03-19.26-10.96-11.15-8.57-16.07-22.52-18.62-35.85zm49.94 38.85c4.72-2.16 9.45-4.34 13.78-7.21-.09 5.62-.99 11.24-2.96 16.51h-9.51c-.3-3.12-.67-6.23-1.31-9.3z" fill="#fbc306"/><path fill="#fcc204" d="M91.43 16.62c11.87 3.66 21.24 13.24 26.77 24.13-1.42.13-2.84.25-4.26.37-1.79-2.41-3.79-4.67-5.79-6.91-3.41.56-6.83 1.11-10.19 1.92-1.95.51-3.89 1.11-5.77 1.84-.46-7.11-.43-14.24-.76-21.35z"/><path fill="#ae4335" d="M63.85 28.02c1.85.73 3.68 1.48 5.51 2.26-.92.92-1.47 2.86-3.09 2.4-1.67-.92-1.7-3.1-2.42-4.66z"/><path fill="#b34639" d="M75.55 31.84c.28-2.25 2.7-2.14 4.42-2.49l-.88 3.09-3.54-.6z"/><path fill="#fdfdfc" d="M97.96 36.13c3.36-.81 6.78-1.36 10.19-1.92 2 2.24 4 4.5 5.79 6.91 2.34 2.92 3.88 6.4 3.94 10.17l-3.27.57c-.36-5.25-2.9-9.9-6.38-13.72-5.57 3.65-11.46 7.11-15.92 12.13-2.45 2.64-1.82 6.45-1.93 9.73.18 7.24-.04 14.48.37 21.72-.76.33-1.52.66-2.28.98-9.5 3.24-19.27 5.66-29.05 7.92-.93-4-1.44-8.08-2.13-12.12-1.54-7.86-2.61-15.83-4.55-23.6-.87-3.9-5.24-4.87-8.48-6.02-3.69-1.18-8.39-2.12-11.42 1-3.15 2.74-2.92 7.24-3.51 11-1.01-.16-3.05-.5-4.06-.66.93-4.08 2.32-8.05 4.33-11.73 1.49-2.44 2.64-5.59 5.47-6.75 4.11-.53 8.26.12 12.39.13 4.93 8.12 13.04 14.59 22.35 16.8-4.72-6.25-12.56-9.11-17.25-15.39-1.15-1.38-1.07-3.25-1.18-4.93l.04-.77c5.56.08 10.99-1.31 16.53-1.59 7.87-.46 15.76-.39 23.65-.48-.1.85-.31 2.56-.41 3.42-4.44 3.99-8.08 8.82-12.86 12.44-3.95 2.88-7.14 6.7-9.47 10.98-1.6 2.55-3.46 4.91-5.27 7.31 1.68-.03 3.37-.07 5.05-.12-.47 3.2-.9 6.4-1.02 9.63 1.15-1.37 2.28-2.77 3.4-4.17.38-.47 1.14-1.4 1.53-1.87 3.35-4.25 6.59-8.61 9.78-12.99-.96.11-2.87.32-3.83.43-.15-1.73-.26-3.47-.27-5.2 3.72-2.95 7.48-5.92 10.62-9.51 3.03-3.25 5.56-7.01 9.11-9.73m-27.68 1.34c.04 1 .09 1.99.14 2.98 1.34.06 2.68.11 4.02.15l.24-3.3c-1.47.05-2.94.11-4.4.17m-6.51 5.85c1.26 4.29 3.62 8.19 7.38 10.73 2.14-1.75 2.82-4.32 2.69-6.99 1.48-1.48 2.97-2.94 4.48-4.37-4.64 2.02-9.72 1.48-14.55.63z"/><path fill="#f15a4e" d="M92.19 37.97c1.88-.73 3.82-1.33 5.77-1.84-3.55 2.72-6.08 6.48-9.11 9.73-3.14 3.59-6.9 6.56-10.62 9.51.01-1.34.05-2.67.1-4 4.78-3.62 8.42-8.45 12.86-12.44l1-.96z"/><path fill="#060507" d="M70.28 37.47c1.46-.06 2.93-.12 4.4-.17l-.24 3.3c-1.34-.04-2.68-.09-4.02-.15-.05-.99-.1-1.98-.14-2.98z"/><path fill="#eb5549" d="M51.03 41.76c.13-1.14.26-2.27.35-3.41.11 1.68.03 3.55 1.18 4.93 4.69 6.28 12.53 9.14 17.25 15.39-9.31-2.21-17.42-8.68-22.35-16.8.89-.03 2.68-.08 3.57-.11z"/><path fill="#ef5a51" d="M63.77 43.32c4.83.85 9.91 1.39 14.55-.63-1.51 1.43-3 2.89-4.48 4.37.13 2.67-.55 5.24-2.69 6.99-3.76-2.54-6.12-6.44-7.38-10.73z"/><path fill="#ef6151" d="M32.84 49.88c3.03-3.12 7.73-2.18 11.42-1 3.24 1.15 7.61 2.12 8.48 6.02 1.94 7.77 3.01 15.74 4.55 23.6-4.7 1.23-9.19 3.13-13.39 5.58-.92-3.04-1.59-6.21-3.1-9.02-4.53-1.4-9.31.08-13.89.51-1.73-2.84-3.66-5.64-6.3-7.72-6.31-1.2-12.72-1.46-19.11-1.61 6.19-5.68 13.61-9.78 20.67-14.25 2.4-1.34 4.91-2.43 7.43-3.5-2.01 3.68-3.4 7.65-4.33 11.73 1.01.16 3.05.5 4.06.66.59-3.76.36-8.26 3.51-11z"/><path fill="#9a6875" d="M68.86 62.35c2.33-4.28 5.52-8.1 9.47-10.98-.05 1.33-.09 2.66-.1 4 .01 1.73.12 3.47.27 5.2-1.48.21-2.96.49-4.42.83-1.51.73-2.93 1.62-4.39 2.46-.2-.38-.62-1.13-.83-1.51z"/><path fill="#54524c" d="M78.5 60.57c.96-.11 2.87-.32 3.83-.43-3.19 4.38-6.43 8.74-9.78 12.99-1.17-.29-2.34-.59-3.5-.89-.3 1.62-.59 3.24-.87 4.85.95-.69 1.9-1.37 2.84-2.09-1.12 1.4-2.25 2.8-3.4 4.17.12-3.23.55-6.43 1.02-9.63-1.68.05-3.37.09-5.05.12 1.81-2.4 3.67-4.76 5.27-7.31.21.38.63 1.13.83 1.51 1.01 1.74 2.01 3.49 2.98 5.25.99-1.01 1.97-2.02 2.97-3.03-.53-1.56-1.06-3.11-1.56-4.68 1.46-.34 2.94-.62 4.42-.83z"/><path d="M69.69 63.86c1.46-.84 2.88-1.73 4.39-2.46.5 1.57 1.03 3.12 1.56 4.68-1 1.01-1.98 2.02-2.97 3.03-.97-1.76-1.97-3.51-2.98-5.25zm-7.83 38.35c2.85 1.59 5.74 3.11 8.69 4.49.64 3.07 1.01 6.18 1.31 9.3h-6.2c-.44-1.2-.85-2.41-1.22-3.62-.98-3.36-1.84-6.75-2.58-10.17z" fill="#fcfefc"/><path fill="#414141" d="M69.05 72.24c1.16.3 2.33.6 3.5.89-.39.47-1.15 1.4-1.53 1.87-.94.72-1.89 1.4-2.84 2.09.28-1.61.57-3.23.87-4.85z"/><path fill="#e45444" d="M88.47 82.7c3.44 2.7 1.47 7.39 1.44 11.06-1.89 1.88-3.67 3.87-5.58 5.73-4.33 2.87-9.06 5.05-13.78 7.21-2.95-1.38-5.84-2.9-8.69-4.49-.86-3.85-1.66-7.72-2.44-11.59 9.78-2.26 19.55-4.68 29.05-7.92z"/><path fill="#fdfcf3" d="M84.33 99.49c1.91-1.86 3.69-3.85 5.58-5.73-.36 6.9-2.12 13.65-4.8 20 1.36 0 2.72-.01 4.09-.03-.57.56-1.72 1.7-2.29 2.27h-5.54c1.97-5.27 2.87-10.89 2.96-16.51z"/><path fill="#fde086" d="M64.44 112.38c.37 1.21.78 2.42 1.22 3.62h-5.18c-.5-.33-1.49-1-1.99-1.34 1.99-.73 3.97-1.51 5.95-2.28z"/></svg>