<svg width="101pt" height="24" viewBox="0 0 101 18" xmlns="http://www.w3.org/2000/svg"><path d="M2.81 0h4.41c3.06.81 3.33 3.98 3.56 6.6l-3.88.03c-.23-1.86-.23-4.07-2.67-4.01-.13 4.08-.5 8.21.14 12.27 2.39 1.44 2.3-2.24 2.5-3.66.99.02 2.97.05 3.96.07-.28 2.57-.59 5.45-3.23 6.7H2.99c-.87-1.13-1.87-2.15-2.99-3.03V3.14C1.05 2.21 2.13 1.25 2.81 0zm29.55 0h.11c.04.73.11 2.19.15 2.93l-2.74.32c.01 4.92.03 9.83-.09 14.75H26.2c-.57-4.92-.29-9.88-.31-14.82-.69-.03-2.07-.08-2.76-.1-.01-.72-.02-2.14-.02-2.86C26.19.21 29.28.14 32.36 0zm16.35 0h1.55c1.9 3.78 3.46 7.72 5.22 11.57.02-3.85.02-7.71.05-11.57h2.03c.11 6 .1 12 .01 18h-1.16c-2.23-3.77-3.68-7.92-5.49-11.9-.03 3.97-.03 7.93-.13 11.9h-2.06c-.08-6-.05-12-.02-18zm34.54 0h2.98c2.77.63 3.27 3.34 3.69 5.72-.61.07-1.84.22-2.45.3-.27-1.32-.54-2.65-.8-3.97-1.46.27-3.96-.33-3.79 1.95-.25 3.84-.75 7.92.54 11.62 4.17 2.49 6.04-6 1.12-5.54 1.46-1.23 3.44-.97 5.22-1.17 0 3.03-.02 6.06-.08 9.09H88.4c-.78-1.63-1.36-1.63-1.73 0h-3.33c-3.72-1.39-3.23-5.8-3.29-9 .07-3.22-.41-7.48 3.2-9zm7.58 0h2.11c1.54 2.41 1.54 5.71 3.06 7.89 1.63-2.06 1.28-5.41 2.43-7.89h1.97c-.66 6.1-4.05 11.64-3.53 17.95l3.88.05h-5.98c.67-6.33-2.06-12.13-3.94-18zM15.2.22C16.74.2 18.29.19 19.83.18c1.1 5.86 2.23 11.71 3.35 17.56-.93.01-2.78.02-3.71.02-.22-1.25-.45-2.5-.67-3.75-.65.03-1.93.07-2.57.09-.11.89-.33 2.66-.45 3.55-1.31.05-2.62.09-3.94.13 1.1-5.86 2.3-11.7 3.36-17.56m1.44 11.32c.45.08 1.34.22 1.78.3-.25-2.15-.53-4.3-.84-6.45-.34 2.05-.64 4.1-.94 6.15zM39.69.18c2.34 0 4.69.01 7.03.02l-.04 1.85-4.44.03c.01 1.88.01 3.76.01 5.64 1.43.39 4.09-.74 3.98 1.78-1.33.07-2.65.12-3.97.17-.01 2.09-.01 4.17-.02 6.25l4.5.03.05 1.79c-2.37.01-4.74.01-7.1.01-.01-5.85-.01-11.71 0-17.57zm20.36.01c2.36-.01 4.72-.01 7.08 0l-.01 1.86-4.49.03V7.8c.93.01 2.79.02 3.72.02.85 2.63-2.45 1.42-3.72 1.96v6.15c1.5 0 3 .01 4.5.02v1.8h-7.08c.01-5.86.01-11.71 0-17.56zM69.06.1c2.52.22 5.32-.27 7.58 1.09 2.44 2.31 1.34 6.11-.59 8.38.79 2.79 1.53 5.59 2.12 8.43h-1.85c-1.86-2.73-1.09-7.66-4.62-8.79-.08 2.93-.09 5.86-.13 8.79h-2.32c-.41-5.96-.12-11.93-.19-17.9m2.58 1.69c-.01 2.04.01 4.09.03 6.13 1.19-.24 2.39-.48 3.59-.71.05-.82.16-2.46.21-3.28-.04-2.06-2.48-1.67-3.83-2.14z" fill="#111"/></svg>