<svg width="44" height="38pt" viewBox="0 0 33 38" xmlns="http://www.w3.org/2000/svg"><path d="M23.13 0h1.41c.56 3.03.98 6.08 1.29 9.14.17 2.7.21 5.4.26 8.1-3.59.11-7.18.22-10.76.59-1.54.15-3.08.33-4.61.52-1.57.02-3.13.02-4.7.04.07-2.84.11-5.68.15-8.52.1-3.2-.04-6.5 1.21-9.51.99 1.4 1.98 2.8 2.9 4.25 3.98-.39 7.98-.23 11.97-.38.63-1.39 1.22-2.8 1.78-4.22l-.9-.01M12.38 14.4c-.27 1.38.28 1.9 1.66 1.56.28-1.38-.27-1.9-1.66-1.56m5.85.82c.63 1.28 1.32 1.28 2.09-.02-.64-1.26-1.34-1.25-2.09.02zm7.63 3.79c.99-.32 1.97-.63 2.97-.91l-.87.55c-3.07 4.03-6.58 7.84-10.96 10.47-1.4 1-3.01-.12-4.35-.67-3.6-1.7-6.47-4.56-8.89-7.66.49.03 1.48.09 1.97.13 3.18 2.71 6.23 5.64 9.84 7.77.62-.15 1.84-.45 2.45-.59-2.26-1.46-4.84-2.77-5.68-5.57 1.43.11 2.86.16 4.29.16.59 1.45 1.29 2.86 2.14 4.19 2.24-2.73 4.66-5.31 7.09-7.87z" fill="#ef6251"/><path d="M25.83 9.14c2.72 2.14 4.78 4.95 6.31 8.03-.83.23-2.48.69-3.31.93-1 .28-1.98.59-2.97.91l.43-1.46c-2.66.03-5.31.11-7.96.18-.75.03-2.25.07-3 .1 3.58-.37 7.17-.48 10.76-.59-.05-2.7-.09-5.4-.26-8.1zM.01 20.58c.9-4.13 3.02-7.87 6.16-10.71-.04 2.84-.08 5.68-.15 8.52 1.57-.02 3.13-.02 4.7-.04-1.94.5-5.08-.31-4.99 2.57-.49-.04-1.48-.1-1.97-.13l-3.75-.21zm25.78 5.49c1.59-2.85 4.67-4.31 7.21-6.17v5.47c-.74 4.84-3.51 9.05-7.31 12.06-.08-3.78-.41-7.6.1-11.36zM.01 23.72c2.02.71 4.13 1.24 6.04 2.23C7.51 29.79 7.62 34.03 8.67 38h-.33C3.43 34.95.07 29.57.01 23.72z" fill="#fcc305"/><path d="M12.38 14.4c1.39-.34 1.94.18 1.66 1.56-1.38.34-1.93-.18-1.66-1.56zm5.85.82c.75-1.27 1.45-1.28 2.09-.02-.77 1.3-1.46 1.3-2.09.02z" fill="#27100e"/><path fill="#0a0403" opacity=".47" d="M15.33 17.83c.75-.03 2.25-.07 3-.1-.61 1.36-.94 2.82-1.55 4.17.7-.06 2.1-.17 2.8-.23-.97.38-1.95.72-2.95 1.02-1.43 0-2.86-.05-4.29-.16l-.64-1.28 4.13.87a44.01 44.01 0 0 0-.5-4.29z"/></svg>