<svg xmlns="http://www.w3.org/2000/svg" width="591.023" height="591.023"><path d="M588.598 404.78c-5.141-4.782-11.453-7.663-17.879-10.196-6.503-2.562-13.174-4.692-19.702-7.197-1.559-.596-3.129-1.681-4.186-2.958-2.591-3.129-5.603-5.345-9.593-6.36-7.115-1.812-13.798-5.26-21.326-5.517-3.541-.118-7.087-.306-10.612-.628-.991-.09-2.109-.555-2.852-1.212-2.379-2.093-4.459-4.558-6.969-6.463-1.24-.942-3.402-1.636-4.729-1.195-1.081.363-1.832 2.509-2.211 3.994-.453 1.783-.396 3.705-.494 5.565-.171 3.354-.836 4.305-4.097 4.582-4.74.407-9.543.392-13.235 4.161-.273.281-1.248.062-1.803-.159-1.905-.751-3.733-1.722-5.668-2.378-1.068-.363-2.484-.702-3.41-.298-4.019 1.762-7.854.51-10.91-1.522-14.811-9.849-31.767-13.537-48.589-17.728-2.158-.538-4.235-1.411-6.332-2.171-9.976-3.61-19.898-7.38-29.939-10.8-6.336-2.158-12.811-2.183-19.167.331-1.294.51-2.734.669-4.016 1.203-5.96 2.493-12.121 2.371-18.11.686-10.743-3.023-21.689-5.712-31.955-9.972-23.888-9.918-46.426-22.587-68.181-36.532-5.826-3.737-10.51-9.208-16.03-13.484-7.581-5.875-15.39-11.465-23.224-17.001-13.859-9.792-28.829-17.45-44.655-23.631-5.459-2.134-10.143-6.202-15.271-9.233-6.418-3.799-13.084-7.197-19.352-11.22-6.487-4.166-12.856-8.588-18.858-13.419-9.959-8.013-19.673-16.341-29.327-24.721-9.315-8.082-16.406-18.054-23.236-28.225-5.398-8.042-9.633-16.745-12.378-25.917-1.906-6.356-2.946-13.133-1.069-20.057 6.838-25.259 36.406-54.631 64.362-48.613.008 0 .012.004.02.004 1.963.424 3.917.91 5.822 1.554.779.265 1.563.531 2.33.829.053.02.102.041.147.057 2.95 1.371 5.81 2.95 8.47 4.823.343.237.681.481 1.016.726.546.449 1.089.902 1.611 1.371 1.224 1.102 2.423 2.232 3.538 3.439a53.83 53.83 0 0 1 1.644 1.836c.225.27.743.942.979 1.245a45.13 45.13 0 0 1 1.877 2.835c.983 1.64 1.917 3.313 2.709 5.055a44.52 44.52 0 0 1 .844 2.407c.502 1.624.963 3.268 1.285 4.937.086.429.167.857.245 1.286.049.432.11.991.13 1.261.135 1.982.204 3.97.102 5.957-.045.849-.086 1.701-.176 2.55l-.024.253c-.555 3.149-1.342 6.271-2.505 9.257-.184.4-.372.8-.567 1.195-.383.755-.767 1.51-1.191 2.24a50.645 50.645 0 0 1-2.301 3.627c-.225.29-.465.591-.6.743a43.187 43.187 0 0 1-1.689 1.84 49.632 49.632 0 0 1-2.652 2.497c-.457.334-1.424 1.065-1.758 1.285-.69.449-1.383.897-2.097 1.306a51.792 51.792 0 0 1-3.146 1.677c-.171.017-2.954 1.118-3.639 1.318-1.579.461-3.174.881-4.794 1.167-.22.041-.441.073-.661.11-.021.004-.037.004-.053.004-.816.069-1.636.134-2.456.159-1.636.041-3.276.041-4.908-.106-.204-.02-.526-.065-.84-.11a27.34 27.34 0 0 1-1.469-.302 44.899 44.899 0 0 1-4.721-1.391c-6.483-2.293-13.782 2.538-15.508 8.805-1.922 6.985 2.333 13.219 8.804 15.508 16.227 5.741 36.492 2.668 50.225-7.797 6.85-5.222 12.88-11.326 16.838-19.103 4.019-7.895 6.39-16.185 6.993-25.035 1.134-16.577-4.961-32.828-15.994-45.129C114.326 50.248 98.944 42.871 82.47 40.99c-28.956-3.313-49.768 10.947-65.843 33.407C8.98 85.079 3.477 96.601.853 109.771c-2.064 10.355-.065 19.947 2.624 29.396 6.279 22.061 18.744 40.812 34.097 57.516 7.099 7.728 15.447 14.337 23.444 21.208 8.556 7.348 17.127 14.72 26.145 21.477 6.018 4.508 12.832 7.948 19.286 11.876.942.576 1.86 1.2 2.921 1.885-.702.885-1.232 1.648-1.853 2.33-6.161 6.806-10.84 14.627-13.599 23.26-2.428 7.601-3.17 15.565-2.566 23.737 1.396 18.866 8.625 35.533 18.095 51.486 1.383 2.325 2.672 4.721 4.223 6.928 3.329 4.729 4.08 10.122 3.341 15.524-1.481 10.8-3.497 21.53-5.292 32.285-.829 4.969-1.628 9.942-2.477 14.908-.988 5.798 1.297 10.796 3.872 15.684 5.953 11.302 11.697 22.729 18.115 33.766 3.697 6.349 5.912 13.064 7.438 20.069 1.416 6.496 3.88 12.232 9.311 16.337 1.358 1.028 2.864 1.864 4.264 2.766 1.921-.774 4.002-1.619 6.083-2.46l-.179.792c3.317.714 6.634 1.424 10.379 2.228.004.021.123.804.347 2.305 1.143-1.497 1.934-2.529 2.75-3.594 4.272-.204 8.821 1.603 13.211-1.877v4.736l.669.196c2.199-3.55 4.394-7.1 6.76-10.918v8.27c4.101-2.66 5.1-10.701.983-14.953-1.652-1.705-3.093-3.708-4.243-5.789-2.566-4.644-6.1-8.226-10.824-10.58-6.716-3.345-11.2-8.739-14.745-15.201-6.512-11.873-11.465-24.28-13.533-37.716-1.29-8.381 1.064-16.189 4.08-24.149 4.59 5.345 8.687 10.686 13.375 15.442 6.924 7.034 14.276 13.644 21.416 20.461.795.76 1.432 1.693 2.105 2.579 5.618 7.385 9.747 15.626 13.938 23.855 2.88 5.655 7.311 9.466 14.068 9.951 5.263.38 10.514.996 15.757 1.624.645.077 1.208.861 1.897 1.392 1.273-.225 2.824-.755 4.362-.719 3.272.078 5.137-.963 6.446-4.047.159-.38.384-.734 1.11-1.021v7.12c3.374-1.734 4.276-4.17 3.876-10.237 10.788 2.596 21.624 5.039 31.155 11.049 11.29 7.12 23.95 11.236 35.958 16.785 8.702 4.023 17.829 2.954 26.899 3.105 1.852.032 4.019.098 5.499 1.023 16.912 10.547 35.733 16.268 54.611 21.828 3.737 1.102 7.687 1.469 11.534 2.216 9.331 1.812 17.936 5.663 26.549 9.502 4.442 1.979 9.004 3.558 14.476 2.236-.596 3.402 1.505 5.034 3.574 6.426 3.06 2.057 6.046 4.296 10.061 4.435 4.811.163 9.617.641 14.415 1.053.612.053 1.191.534 2.064.951.547-.812 1.195-1.787 1.873-2.799 4.863.143 9.865.697 14.691-1.563.058.433.144 1.094.147 1.118l17.201-6.3c.465 1.624.824 2.889 1.188 4.154.24.004.481.004.722.008.217-1.746.421-3.501.661-5.243.253-1.823.543-3.647.812-5.467l.8-.118c.661 2.473 1.322 4.94 2.175 8.115.596-1.53 1.273-2.652 1.444-3.844.559-3.876-.163-7.613-2.99-10.384-3.758-3.685-7.646-7.315-11.897-10.392-3.117-2.256-6.753-4.063-10.425-5.223-6.344-2.007-12.921-3.28-19.359-4.998-6.206-1.652-12.35-3.521-18.544-5.21-2.329-.637-4.777-.86-7.078-1.575-2.289-.709-4.773-1.383-6.626-2.79-6.729-5.129-13.231-10.563-20.392-16.345 3.888 0 7.018.266 10.085-.049 8.442-.869 16.843-2.13 25.284-2.946 7.25-.701 14.464-.064 21.738.601 4.762.437 6.707 4.182 10.38 5.536 2.77 1.024 5.435 2.782 8.27 3.097 7.572.837 15.211 1.167 22.832 1.477 1.962.082 3.949-.774 5.948-.958.734-.069 1.538.551 2.473.922 1.722-2.415 7.1-1.828 6.924-7.152.27.122.543.245.812.371.184 1.853.367 3.705.551 5.524 2.665-1.979 3.003-6.65.429-10.037-6.156-8.095-13.256-15.079-23.04-18.739-.322-.118-.615-.306-1.799-.901 2.554-1.232 4.419-2.396 6.442-3.061 8.209-2.7 16.707-4.21 25.3-4.063 4.464.078 8.891 1.853 13.346 2.808 4.37.938 8.711 1.289 12.587-1.579 3.904-2.885 4.949-7.328 5.916-11.686.155-.689-1.437-1.681-2.016-2.651-.404-.678-.824-1.678-.616-2.334 1.061-3.338 2.33-6.609 3.518-9.906.061-.172.008-.404.105-.543 3.717-5.324 1.135-11.224 1.428-16.842.066-1.239-.857-2.859-1.827-3.761z"/></svg>